M48
; DRILL file KiCad 10.0.6 date 2026-09-28T21:11:55
; FORMAT={-:-/ absolute / metric / decimal}
; #@! TF.CreationDate,2026-09-28T21:11:55+07:00
; #@! TF.GenerationSoftware,Kicad,Pcbnew,10.0.6
; #@! TF.FileFunction,MixedPlating,1,2
FMAT,2
METRIC
; #@! TA.AperFunction,Plated,PTH,ViaDrill
T1C0.300
; #@! TA.AperFunction,Plated,PTH,ComponentDrill
T2C0.550
; #@! TA.AperFunction,Plated,PTH,ComponentDrill
T3C0.800
; #@! TA.AperFunction,Plated,PTH,ComponentDrill
T4C0.850
; #@! TA.AperFunction,Plated,PTH,ComponentDrill
T5C1.000
; #@! TA.AperFunction,NonPlated,NPTH,ComponentDrill
T6C0.800
; #@! TA.AperFunction,NonPlated,NPTH,ComponentDrill
T7C0.900
; #@! TA.AperFunction,NonPlated,NPTH,ComponentDrill
T8C2.200
%
G90
G05
T1
X27.0Y-22.0
X30.25Y-38.5
X31.25Y-28.5
X31.5Y-32.25
X35.8Y-40.5
X36.5Y-34.0
X37.25Y-28.0
X37.37Y-40.61
X37.88Y-36.601
X38.5Y-18.0
X38.99Y-42.01
X40.25Y-21.25
X41.75Y-21.25
X43.542Y-36.6
X44.66Y-40.75
X46.72Y-40.75
X49.5Y-29.25
X51.0Y-18.0
X56.75Y-36.5
X57.5Y-36.5
X58.0Y-32.25
X58.0Y-33.0
X60.25Y-28.75
X61.0Y-37.75
X63.25Y-35.75
T3
X26.75Y-30.81
X26.75Y-35.69
T5
X40.94Y-18.0
X40.94Y-43.0
X43.48Y-18.0
X43.48Y-43.0
X46.02Y-18.0
X46.02Y-43.0
X48.56Y-18.0
X48.56Y-43.0
X53.0Y-18.0
X55.54Y-18.0
X58.08Y-18.0
X60.62Y-18.0
T6
X62.6Y-27.45
X62.6Y-32.45
T7
X26.75Y-23.855
X29.75Y-23.855
T8
X26.5Y-18.5
X26.5Y-42.0
X65.0Y-18.5
X65.0Y-42.0
T2
G00X65.025Y-26.075
M15
G01X65.675Y-26.075
M16
G05
G00X65.025Y-33.825
M15
G01X65.675Y-33.825
M16
G05
T4
G00X61.275Y-26.225
M15
G01X61.825Y-26.225
M16
G05
G00X61.275Y-33.675
M15
G01X61.825Y-33.675
M16
G05
M30
