%TF.GenerationSoftware,KiCad,Pcbnew,10.0.6*%
%TF.CreationDate,2026-09-28T21:12:06+07:00*%
%TF.ProjectId,STM32,53544d33-322e-46b6-9963-61645f706362,rev?*%
%TF.SameCoordinates,Original*%
%TF.FileFunction,Copper,L1,Top*%
%TF.FilePolarity,Positive*%
%FSLAX46Y46*%
G04 Gerber Fmt 4.6, Leading zero omitted, Abs format (unit mm)*
G04 Created by KiCad (PCBNEW 10.0.6) date 2026-09-28 21:12:06*
%MOMM*%
%LPD*%
G01*
G04 APERTURE LIST*
G04 Aperture macros list*
%AMRoundRect*
0 Rectangle with rounded corners*
0 $1 Rounding radius*
0 $2 $3 $4 $5 $6 $7 $8 $9 X,Y pos of 4 corners*
0 Add a 4 corners polygon primitive as box body*
4,1,4,$2,$3,$4,$5,$6,$7,$8,$9,$2,$3,0*
0 Add four circle primitives for the rounded corners*
1,1,$1+$1,$2,$3*
1,1,$1+$1,$4,$5*
1,1,$1+$1,$6,$7*
1,1,$1+$1,$8,$9*
0 Add four rect primitives between the rounded corners*
20,1,$1+$1,$2,$3,$4,$5,0*
20,1,$1+$1,$4,$5,$6,$7,0*
20,1,$1+$1,$6,$7,$8,$9,0*
20,1,$1+$1,$8,$9,$2,$3,0*%
G04 Aperture macros list end*
%TA.AperFunction,SMDPad,CuDef*%
%ADD10R,1.000000X0.800000*%
%TD*%
%TA.AperFunction,SMDPad,CuDef*%
%ADD11R,0.700000X1.500000*%
%TD*%
%TA.AperFunction,SMDPad,CuDef*%
%ADD12RoundRect,0.140000X0.140000X0.170000X-0.140000X0.170000X-0.140000X-0.170000X0.140000X-0.170000X0*%
%TD*%
%TA.AperFunction,ComponentPad*%
%ADD13C,1.500000*%
%TD*%
%TA.AperFunction,SMDPad,CuDef*%
%ADD14RoundRect,0.140000X0.170000X-0.140000X0.170000X0.140000X-0.170000X0.140000X-0.170000X-0.140000X0*%
%TD*%
%TA.AperFunction,SMDPad,CuDef*%
%ADD15RoundRect,0.250000X0.475000X-0.250000X0.475000X0.250000X-0.475000X0.250000X-0.475000X-0.250000X0*%
%TD*%
%TA.AperFunction,SMDPad,CuDef*%
%ADD16RoundRect,0.250000X-0.250000X-0.475000X0.250000X-0.475000X0.250000X0.475000X-0.250000X0.475000X0*%
%TD*%
%TA.AperFunction,SMDPad,CuDef*%
%ADD17RoundRect,0.135000X0.135000X0.185000X-0.135000X0.185000X-0.135000X-0.185000X0.135000X-0.185000X0*%
%TD*%
%TA.AperFunction,SMDPad,CuDef*%
%ADD18RoundRect,0.218750X-0.256250X0.218750X-0.256250X-0.218750X0.256250X-0.218750X0.256250X0.218750X0*%
%TD*%
%TA.AperFunction,SMDPad,CuDef*%
%ADD19RoundRect,0.140000X-0.170000X0.140000X-0.170000X-0.140000X0.170000X-0.140000X0.170000X0.140000X0*%
%TD*%
%TA.AperFunction,SMDPad,CuDef*%
%ADD20RoundRect,0.135000X0.185000X-0.135000X0.185000X0.135000X-0.185000X0.135000X-0.185000X-0.135000X0*%
%TD*%
%TA.AperFunction,SMDPad,CuDef*%
%ADD21RoundRect,0.375000X-0.375000X0.625000X-0.375000X-0.625000X0.375000X-0.625000X0.375000X0.625000X0*%
%TD*%
%TA.AperFunction,SMDPad,CuDef*%
%ADD22RoundRect,0.500000X-1.400000X0.500000X-1.400000X-0.500000X1.400000X-0.500000X1.400000X0.500000X0*%
%TD*%
%TA.AperFunction,ComponentPad*%
%ADD23R,1.700000X1.700000*%
%TD*%
%TA.AperFunction,ComponentPad*%
%ADD24C,1.700000*%
%TD*%
%TA.AperFunction,SMDPad,CuDef*%
%ADD25RoundRect,0.140000X-0.140000X-0.170000X0.140000X-0.170000X0.140000X0.170000X-0.140000X0.170000X0*%
%TD*%
%TA.AperFunction,SMDPad,CuDef*%
%ADD26RoundRect,0.135000X-0.135000X-0.185000X0.135000X-0.185000X0.135000X0.185000X-0.135000X0.185000X0*%
%TD*%
%TA.AperFunction,SMDPad,CuDef*%
%ADD27RoundRect,0.112500X0.537500X-0.112500X0.537500X0.112500X-0.537500X0.112500X-0.537500X-0.112500X0*%
%TD*%
%TA.AperFunction,ComponentPad*%
%ADD28O,1.800000X1.150000*%
%TD*%
%TA.AperFunction,ComponentPad*%
%ADD29O,2.000000X1.450000*%
%TD*%
%TA.AperFunction,SMDPad,CuDef*%
%ADD30RoundRect,0.075000X-0.700000X-0.075000X0.700000X-0.075000X0.700000X0.075000X-0.700000X0.075000X0*%
%TD*%
%TA.AperFunction,SMDPad,CuDef*%
%ADD31RoundRect,0.075000X-0.075000X-0.700000X0.075000X-0.700000X0.075000X0.700000X-0.075000X0.700000X0*%
%TD*%
%TA.AperFunction,SMDPad,CuDef*%
%ADD32RoundRect,0.225000X-0.225000X-0.250000X0.225000X-0.250000X0.225000X0.250000X-0.225000X0.250000X0*%
%TD*%
%TA.AperFunction,ViaPad*%
%ADD33C,0.700000*%
%TD*%
%TA.AperFunction,Conductor*%
%ADD34C,0.300000*%
%TD*%
%TA.AperFunction,Conductor*%
%ADD35C,0.500000*%
%TD*%
%TA.AperFunction,Conductor*%
%ADD36C,0.200000*%
%TD*%
G04 APERTURE END LIST*
D10*
%TO.P,SW1,*%
%TO.N,*%
X24600000Y-22745000D03*
X24600000Y-24955000D03*
X31900000Y-22745000D03*
X31900000Y-24955000D03*
D11*
%TO.P,SW1,1,A_1*%
%TO.N,GND*%
X26000000Y-22095000D03*
%TO.P,SW1,2,B_2*%
%TO.N,/SW_BOOT0*%
X29000000Y-22095000D03*
%TO.P,SW1,3,C_3*%
%TO.N,+3.3V*%
X30500000Y-22095000D03*
%TD*%
D12*
%TO.P,C9,1*%
%TO.N,+3.3V*%
X44730000Y-39750000D03*
%TO.P,C9,2*%
%TO.N,GND*%
X43770000Y-39750000D03*
%TD*%
D13*
%TO.P,Y1,1,1_1*%
%TO.N,/HSE_IN*%
X26750000Y-30810000D03*
%TO.P,Y1,2,2_2*%
%TO.N,/HSE_OUT*%
X26750000Y-35690000D03*
%TD*%
D14*
%TO.P,C12,1*%
%TO.N,+3.3VA*%
X33000000Y-34730000D03*
%TO.P,C12,2*%
%TO.N,GND*%
X33000000Y-33770000D03*
%TD*%
D15*
%TO.P,C2,1*%
%TO.N,+3.3V*%
X59700000Y-39550000D03*
%TO.P,C2,2*%
%TO.N,GND*%
X59700000Y-37650000D03*
%TD*%
D16*
%TO.P,C1,1*%
%TO.N,VBUS*%
X54800000Y-32500000D03*
%TO.P,C1,2*%
%TO.N,GND*%
X56700000Y-32500000D03*
%TD*%
D17*
%TO.P,R3,1*%
%TO.N,+3.3V*%
X42020000Y-22000000D03*
%TO.P,R3,2*%
%TO.N,/I2C1_SDA*%
X41000000Y-22000000D03*
%TD*%
D14*
%TO.P,C8,1*%
%TO.N,/HSE_OUT*%
X30500000Y-34480000D03*
%TO.P,C8,2*%
%TO.N,GND*%
X30500000Y-33520000D03*
%TD*%
D12*
%TO.P,C6,1*%
%TO.N,+3.3V*%
X33000000Y-28500000D03*
%TO.P,C6,2*%
%TO.N,GND*%
X32040000Y-28500000D03*
%TD*%
%TO.P,C13,1*%
%TO.N,+3.3VA*%
X32480000Y-38500000D03*
%TO.P,C13,2*%
%TO.N,GND*%
X31520000Y-38500000D03*
%TD*%
%TO.P,C14,1*%
%TO.N,+3.3V*%
X32480000Y-40000000D03*
%TO.P,C14,2*%
%TO.N,GND*%
X31520000Y-40000000D03*
%TD*%
D18*
%TO.P,D1,1,K_1*%
%TO.N,/PWR_LED_K*%
X62250000Y-38025000D03*
%TO.P,D1,2,A_2*%
%TO.N,+3.3V*%
X62250000Y-39600000D03*
%TD*%
D19*
%TO.P,C11,1*%
%TO.N,+3.3V*%
X48500000Y-28270000D03*
%TO.P,C11,2*%
%TO.N,GND*%
X48500000Y-29230000D03*
%TD*%
D20*
%TO.P,R1,1*%
%TO.N,/PWR_LED_K*%
X62250000Y-36620000D03*
%TO.P,R1,2*%
%TO.N,GND*%
X62250000Y-35600000D03*
%TD*%
D21*
%TO.P,U1,1,GND_1*%
%TO.N,GND*%
X57000000Y-35000000D03*
%TO.P,U1,2,VO_2*%
%TO.N,+3.3V*%
X54700000Y-35000000D03*
D22*
X54700000Y-41300000D03*
D21*
%TO.P,U1,3,VI_3*%
%TO.N,VBUS*%
X52400000Y-35000000D03*
%TD*%
D23*
%TO.P,J2,1,Pin_1_1*%
%TO.N,+3.3V*%
X48560000Y-18000000D03*
D24*
%TO.P,J2,2,Pin_2_2*%
%TO.N,/I2C1_SCL*%
X46020000Y-18000000D03*
%TO.P,J2,3,Pin_3_3*%
%TO.N,/I2C1_SDA*%
X43480000Y-18000000D03*
%TO.P,J2,4,Pin_4_4*%
%TO.N,GND*%
X40940000Y-18000000D03*
%TD*%
D25*
%TO.P,C4,1*%
%TO.N,/NRST*%
X37270000Y-41500000D03*
%TO.P,C4,2*%
%TO.N,GND*%
X38230000Y-41500000D03*
%TD*%
D26*
%TO.P,R2,1*%
%TO.N,+3.3V*%
X43000000Y-22000000D03*
%TO.P,R2,2*%
%TO.N,/I2C1_SCL*%
X44020000Y-22000000D03*
%TD*%
D25*
%TO.P,C10,1*%
%TO.N,+3.3V*%
X36270000Y-24750000D03*
%TO.P,C10,2*%
%TO.N,GND*%
X37230000Y-24750000D03*
%TD*%
D23*
%TO.P,J1,1,Pin_1_1*%
%TO.N,+3.3V*%
X48560000Y-43000000D03*
D24*
%TO.P,J1,2,Pin_2_2*%
%TO.N,/USART1_TX*%
X46020000Y-43000000D03*
%TO.P,J1,3,Pin_3_3*%
%TO.N,/USART1_RX*%
X43480000Y-43000000D03*
%TO.P,J1,4,Pin_4_4*%
%TO.N,GND*%
X40940000Y-43000000D03*
%TD*%
D27*
%TO.P,J3,1,VBUS_1*%
%TO.N,VBUS*%
X61500000Y-31250000D03*
%TO.P,J3,2,D-_2*%
%TO.N,/USB_D-*%
X61500000Y-30600000D03*
%TO.P,J3,3,D+_3*%
%TO.N,/USB_D+*%
X61500000Y-29950000D03*
%TO.P,J3,4,ID_4*%
%TO.N,unconnected-(J3-ID-Pad4)*%
X61500000Y-29300000D03*
%TO.P,J3,5,GND_5*%
%TO.N,GND*%
X61500000Y-28650000D03*
D28*
%TO.P,J3,SH,Shield_SH*%
%TO.N,unconnected-(J3-Shield-PadSH)_2*%
X65350000Y-33825000D03*
D29*
%TO.N,unconnected-(J3-Shield-PadSH)_3*%
X61550000Y-33675000D03*
%TO.N,unconnected-(J3-Shield-PadSH)_1*%
X61550000Y-26225000D03*
D28*
%TO.N,unconnected-(J3-Shield-PadSH)*%
X65350000Y-26075000D03*
%TD*%
D18*
%TO.P,FB1,1*%
%TO.N,+3.3VA*%
X34020000Y-38500000D03*
%TO.P,FB1,2*%
%TO.N,+3.3V*%
X34020000Y-40075000D03*
%TD*%
D30*
%TO.P,U2,1,VBAT_1*%
%TO.N,+3.3V*%
X35075000Y-28500000D03*
%TO.P,U2,2,PC13_2*%
%TO.N,unconnected-(U2-PC13-Pad2)*%
X35075000Y-29000000D03*
%TO.P,U2,3,PC14_3*%
%TO.N,unconnected-(U2-PC14-Pad3)*%
X35075000Y-29500000D03*
%TO.P,U2,4,PC15_4*%
%TO.N,unconnected-(U2-PC15-Pad4)*%
X35075000Y-30000000D03*
%TO.P,U2,5,PH0_5*%
%TO.N,/HSE_IN*%
X35075000Y-30500000D03*
%TO.P,U2,6,PH1_6*%
%TO.N,/HSE_OUT*%
X35075000Y-31000000D03*
%TO.P,U2,7,NRST_7*%
%TO.N,/NRST*%
X35075000Y-31500000D03*
%TO.P,U2,8,PC0_8*%
%TO.N,unconnected-(U2-PC0-Pad8)*%
X35075000Y-32000000D03*
%TO.P,U2,9,PC1_9*%
%TO.N,unconnected-(U2-PC1-Pad9)*%
X35075000Y-32500000D03*
%TO.P,U2,10,PC2_10*%
%TO.N,unconnected-(U2-PC2-Pad10)*%
X35075000Y-33000000D03*
%TO.P,U2,11,PC3_11*%
%TO.N,unconnected-(U2-PC3-Pad11)*%
X35075000Y-33500000D03*
%TO.P,U2,12,VSSA_12*%
%TO.N,GND*%
X35075000Y-34000000D03*
%TO.P,U2,13,VDDA_13*%
%TO.N,+3.3VA*%
X35075000Y-34500000D03*
%TO.P,U2,14,PA0_14*%
%TO.N,unconnected-(U2-PA0-Pad14)*%
X35075000Y-35000000D03*
%TO.P,U2,15,PA1_15*%
%TO.N,unconnected-(U2-PA1-Pad15)*%
X35075000Y-35500000D03*
%TO.P,U2,16,PA2_16*%
%TO.N,unconnected-(U2-PA2-Pad16)*%
X35075000Y-36000000D03*
D31*
%TO.P,U2,17,PA3_17*%
%TO.N,unconnected-(U2-PA3-Pad17)*%
X37000000Y-37925000D03*
%TO.P,U2,18,VSS_18*%
%TO.N,GND*%
X37500000Y-37925000D03*
%TO.P,U2,19,VDD_19*%
%TO.N,+3.3V*%
X38000000Y-37925000D03*
%TO.P,U2,20,PA4_20*%
%TO.N,unconnected-(U2-PA4-Pad20)*%
X38500000Y-37925000D03*
%TO.P,U2,21,PA5_21*%
%TO.N,unconnected-(U2-PA5-Pad21)*%
X39000000Y-37925000D03*
%TO.P,U2,22,PA6_22*%
%TO.N,unconnected-(U2-PA6-Pad22)*%
X39500000Y-37925000D03*
%TO.P,U2,23,PA7_23*%
%TO.N,unconnected-(U2-PA7-Pad23)*%
X40000000Y-37925000D03*
%TO.P,U2,24,PC4_24*%
%TO.N,unconnected-(U2-PC4-Pad24)*%
X40500000Y-37925000D03*
%TO.P,U2,25,PC5_25*%
%TO.N,unconnected-(U2-PC5-Pad25)*%
X41000000Y-37925000D03*
%TO.P,U2,26,PB0_26*%
%TO.N,unconnected-(U2-PB0-Pad26)*%
X41500000Y-37925000D03*
%TO.P,U2,27,PB1_27*%
%TO.N,unconnected-(U2-PB1-Pad27)*%
X42000000Y-37925000D03*
%TO.P,U2,28,PB2_28*%
%TO.N,unconnected-(U2-PB2-Pad28)*%
X42500000Y-37925000D03*
%TO.P,U2,29,PB10_29*%
%TO.N,unconnected-(U2-PB10-Pad29)*%
X43000000Y-37925000D03*
%TO.P,U2,30,VCAP1_30*%
%TO.N,unconnected-(U2-VCAP1-Pad30)*%
X43500000Y-37925000D03*
%TO.P,U2,31,VSS_31*%
%TO.N,GND*%
X44000000Y-37925000D03*
%TO.P,U2,32,VDD_32*%
%TO.N,+3.3V*%
X44500000Y-37925000D03*
D30*
%TO.P,U2,33,PB12_33*%
%TO.N,unconnected-(U2-PB12-Pad33)*%
X46425000Y-36000000D03*
%TO.P,U2,34,PB13_34*%
%TO.N,unconnected-(U2-PB13-Pad34)*%
X46425000Y-35500000D03*
%TO.P,U2,35,PB14_35*%
%TO.N,unconnected-(U2-PB14-Pad35)*%
X46425000Y-35000000D03*
%TO.P,U2,36,PB15_36*%
%TO.N,unconnected-(U2-PB15-Pad36)*%
X46425000Y-34500000D03*
%TO.P,U2,37,PC6_37*%
%TO.N,unconnected-(U2-PC6-Pad37)*%
X46425000Y-34000000D03*
%TO.P,U2,38,PC7_38*%
%TO.N,unconnected-(U2-PC7-Pad38)*%
X46425000Y-33500000D03*
%TO.P,U2,39,PC8_39*%
%TO.N,unconnected-(U2-PC8-Pad39)*%
X46425000Y-33000000D03*
%TO.P,U2,40,PC9_40*%
%TO.N,unconnected-(U2-PC9-Pad40)*%
X46425000Y-32500000D03*
%TO.P,U2,41,PA8_41*%
%TO.N,unconnected-(U2-PA8-Pad41)*%
X46425000Y-32000000D03*
%TO.P,U2,42,PA9_42*%
%TO.N,unconnected-(U2-PA9-Pad42)*%
X46425000Y-31500000D03*
%TO.P,U2,43,PA10_43*%
%TO.N,unconnected-(U2-PA10-Pad43)*%
X46425000Y-31000000D03*
%TO.P,U2,44,PA11_44*%
%TO.N,/USB_D-*%
X46425000Y-30500000D03*
%TO.P,U2,45,PA12_45*%
%TO.N,/USB_D+*%
X46425000Y-30000000D03*
%TO.P,U2,46,PA13_46*%
%TO.N,/SWDIO*%
X46425000Y-29500000D03*
%TO.P,U2,47,VSS_47*%
%TO.N,GND*%
X46425000Y-29000000D03*
%TO.P,U2,48,VDD_48*%
%TO.N,+3.3V*%
X46425000Y-28500000D03*
D31*
%TO.P,U2,49,PA14_49*%
%TO.N,/SWCLK*%
X44500000Y-26575000D03*
%TO.P,U2,50,PA15_50*%
%TO.N,unconnected-(U2-PA15-Pad50)*%
X44000000Y-26575000D03*
%TO.P,U2,51,PC10_51*%
%TO.N,unconnected-(U2-PC10-Pad51)*%
X43500000Y-26575000D03*
%TO.P,U2,52,PC11_52*%
%TO.N,unconnected-(U2-PC11-Pad52)*%
X43000000Y-26575000D03*
%TO.P,U2,53,PC12_53*%
%TO.N,unconnected-(U2-PC12-Pad53)*%
X42500000Y-26575000D03*
%TO.P,U2,54,PD2_54*%
%TO.N,unconnected-(U2-PD2-Pad54)*%
X42000000Y-26575000D03*
%TO.P,U2,55,PB3_55*%
%TO.N,unconnected-(U2-PB3-Pad55)*%
X41500000Y-26575000D03*
%TO.P,U2,56,PB4_56*%
%TO.N,unconnected-(U2-PB4-Pad56)*%
X41000000Y-26575000D03*
%TO.P,U2,57,PB5_57*%
%TO.N,unconnected-(U2-PB5-Pad57)*%
X40500000Y-26575000D03*
%TO.P,U2,58,PB6_58*%
%TO.N,/USART1_TX*%
X40000000Y-26575000D03*
%TO.P,U2,59,PB7_59*%
%TO.N,/USART1_RX*%
X39500000Y-26575000D03*
%TO.P,U2,60,BOOT0_60*%
%TO.N,/BOOT0*%
X39000000Y-26575000D03*
%TO.P,U2,61,PB8_61*%
%TO.N,/I2C1_SCL*%
X38500000Y-26575000D03*
%TO.P,U2,62,PB9_62*%
%TO.N,/I2C1_SDA*%
X38000000Y-26575000D03*
%TO.P,U2,63,VSS_63*%
%TO.N,GND*%
X37500000Y-26575000D03*
%TO.P,U2,64,VDD_64*%
%TO.N,+3.3V*%
X37000000Y-26575000D03*
%TD*%
D19*
%TO.P,C5,1*%
%TO.N,/HSE_IN*%
X30500000Y-31520000D03*
%TO.P,C5,2*%
%TO.N,GND*%
X30500000Y-32480000D03*
%TD*%
D26*
%TO.P,R4,1*%
%TO.N,/SW_BOOT0*%
X31240000Y-26750000D03*
%TO.P,R4,2*%
%TO.N,/BOOT0*%
X32260000Y-26750000D03*
%TD*%
D32*
%TO.P,C3,1*%
%TO.N,+3.3V*%
X36475000Y-22250000D03*
%TO.P,C3,2*%
%TO.N,GND*%
X38025000Y-22250000D03*
%TD*%
D12*
%TO.P,C7,1*%
%TO.N,+3.3V*%
X38230000Y-39750000D03*
%TO.P,C7,2*%
%TO.N,GND*%
X37270000Y-39750000D03*
%TD*%
D23*
%TO.P,J4,1,Pin_1_1*%
%TO.N,+3.3V*%
X60620000Y-18000000D03*
D24*
%TO.P,J4,2,Pin_2_2*%
%TO.N,/SWDIO*%
X58080000Y-18000000D03*
%TO.P,J4,3,Pin_3_3*%
%TO.N,/SWCLK*%
X55540000Y-18000000D03*
%TO.P,J4,4,Pin_4_4*%
%TO.N,GND*%
X53000000Y-18000000D03*
%TD*%
D33*
%TO.N,GND*%
X36500000Y-34000000D03*
X58000000Y-33000000D03*
X27000000Y-22000000D03*
X60250000Y-28750000D03*
X51000000Y-18000000D03*
X37250000Y-28000000D03*
X56750000Y-36500000D03*
X31250000Y-28500000D03*
X57500000Y-36500000D03*
X30250000Y-38500000D03*
X49500000Y-29250000D03*
X63250000Y-35750000D03*
X38500000Y-18000000D03*
X37880357Y-36601265D03*
X31500000Y-32250000D03*
X43541796Y-36600000D03*
X61000000Y-37750000D03*
X38990000Y-42010000D03*
X58000000Y-32250000D03*
%TO.N,+3.3V*%
X40250000Y-21250000D03*
X44660000Y-40750000D03*
X37369949Y-40609999D03*
X41750000Y-21250000D03*
X46720000Y-40750000D03*
X35800000Y-40500000D03*
%TD*%
%TO.N,GND*%
D34*
X44000000Y-37925000D02*
X44000000Y-38803120D01*
X44000000Y-38803120D02*
X43770000Y-39033120D01*
X37500000Y-27750000D02*
X37250000Y-28000000D01*
X35075000Y-34000000D02*
X34196880Y-34000000D01*
D35*
X30500000Y-33520000D02*
X30500000Y-32480000D01*
D34*
X37500000Y-26575000D02*
X37500000Y-25696880D01*
X47533120Y-29230000D02*
X48500000Y-29230000D01*
X44000000Y-37925000D02*
X44000000Y-37000000D01*
X43600000Y-36600000D02*
X43541796Y-36600000D01*
X46425000Y-29000000D02*
X47303120Y-29000000D01*
X49480000Y-29230000D02*
X49500000Y-29250000D01*
D35*
X62250000Y-35600000D02*
X63100000Y-35600000D01*
D34*
X37500000Y-36981622D02*
X37880357Y-36601265D01*
D35*
X26905000Y-22095000D02*
X27000000Y-22000000D01*
D34*
X34196880Y-34000000D02*
X33966880Y-33770000D01*
D35*
X53000000Y-18000000D02*
X51000000Y-18000000D01*
D34*
X37500000Y-38803120D02*
X37270000Y-39033120D01*
X37270000Y-39033120D02*
X37270000Y-39750000D01*
X61500000Y-28650000D02*
X60350000Y-28650000D01*
X37500000Y-37925000D02*
X37500000Y-38803120D01*
D35*
X63100000Y-35600000D02*
X63250000Y-35750000D01*
D34*
X37500000Y-25696880D02*
X37230000Y-25426880D01*
X60350000Y-28650000D02*
X60250000Y-28750000D01*
D35*
X39980000Y-43000000D02*
X40940000Y-43000000D01*
D34*
X37230000Y-24750000D02*
X37230000Y-23045000D01*
D35*
X32040000Y-28500000D02*
X31250000Y-28500000D01*
X40940000Y-18000000D02*
X38500000Y-18000000D01*
D34*
X43770000Y-39033120D02*
X43770000Y-39750000D01*
D35*
X38990000Y-42010000D02*
X39980000Y-43000000D01*
D34*
X44000000Y-37000000D02*
X43600000Y-36600000D01*
D35*
X31520000Y-40000000D02*
X31520000Y-38500000D01*
D34*
X37500000Y-37925000D02*
X37500000Y-36981622D01*
D35*
X38480000Y-41500000D02*
X38230000Y-41500000D01*
D34*
X37230000Y-25426880D02*
X37230000Y-24750000D01*
X48500000Y-29230000D02*
X49480000Y-29230000D01*
D35*
X31520000Y-38500000D02*
X30250000Y-38500000D01*
X26000000Y-22095000D02*
X26905000Y-22095000D01*
D34*
X47303120Y-29000000D02*
X47533120Y-29230000D01*
D35*
X38990000Y-42010000D02*
X38480000Y-41500000D01*
D34*
X37500000Y-26575000D02*
X37500000Y-27750000D01*
D35*
X31270000Y-32480000D02*
X31500000Y-32250000D01*
D34*
X37230000Y-23045000D02*
X38025000Y-22250000D01*
X33966880Y-33770000D02*
X33000000Y-33770000D01*
X35075000Y-34000000D02*
X36500000Y-34000000D01*
D35*
X30500000Y-32480000D02*
X31270000Y-32480000D01*
%TO.N,/SW_BOOT0*%
D34*
X28900000Y-24410000D02*
X31240000Y-26750000D01*
X28900000Y-22195000D02*
X28900000Y-24410000D01*
X29000000Y-22095000D02*
X28900000Y-22195000D01*
%TO.N,+3.3V*%
D35*
X39000000Y-40750000D02*
X38750000Y-40500000D01*
X44710000Y-40750000D02*
X44660000Y-40750000D01*
X38230000Y-39980000D02*
X38230000Y-39750000D01*
D34*
X47500000Y-28250000D02*
X47520000Y-28270000D01*
D35*
X60620000Y-18000000D02*
X56560000Y-22060000D01*
X63750000Y-26000000D02*
X63750000Y-35118629D01*
X60620000Y-22870000D02*
X63750000Y-26000000D01*
D34*
X38000000Y-38803120D02*
X38246880Y-39050000D01*
X38246880Y-39050000D02*
X38230000Y-39066880D01*
X38230000Y-40040260D02*
X38230000Y-39750000D01*
D35*
X28200000Y-20895000D02*
X28200000Y-28750000D01*
D34*
X38230000Y-39066880D02*
X38230000Y-39750000D01*
D35*
X30700000Y-21895000D02*
X36120000Y-21895000D01*
X38500000Y-40250000D02*
X38230000Y-39980000D01*
X35800000Y-40500000D02*
X34445000Y-40500000D01*
X61250000Y-39550000D02*
X62200000Y-39550000D01*
D34*
X44750000Y-39000000D02*
X44730000Y-39020000D01*
D35*
X41750000Y-21250000D02*
X41750000Y-21730000D01*
X27650000Y-29300000D02*
X28750000Y-29300000D01*
X43000000Y-22000000D02*
X42020000Y-22000000D01*
X50350000Y-28270000D02*
X48500000Y-28270000D01*
X51000000Y-43000000D02*
X48560000Y-43000000D01*
X32480000Y-40188266D02*
X31908266Y-40760000D01*
X57800000Y-43000000D02*
X51000000Y-43000000D01*
X51000000Y-41750000D02*
X50000000Y-40750000D01*
X27650000Y-29300000D02*
X28200000Y-28750000D01*
X29510000Y-40760000D02*
X25250000Y-36500000D01*
X32480000Y-40000000D02*
X33945000Y-40000000D01*
X31908266Y-40760000D02*
X29510000Y-40760000D01*
X59120000Y-16500000D02*
X60620000Y-18000000D01*
D34*
X44500000Y-37925000D02*
X44500000Y-38750000D01*
D35*
X30500000Y-22095000D02*
X30500000Y-21250000D01*
X30500000Y-22095000D02*
X30700000Y-21895000D01*
X25250000Y-36500000D02*
X25250000Y-30000000D01*
D34*
X36270000Y-25845000D02*
X36270000Y-24750000D01*
D35*
X64050000Y-37800000D02*
X62250000Y-39600000D01*
X34445000Y-40500000D02*
X34020000Y-40075000D01*
X60620000Y-18000000D02*
X60620000Y-22870000D01*
X32509999Y-29300000D02*
X33000000Y-28809999D01*
X33000000Y-28809999D02*
X33000000Y-28500000D01*
D34*
X47520000Y-28270000D02*
X48500000Y-28270000D01*
D35*
X44710000Y-39770000D02*
X44730000Y-39750000D01*
X44710000Y-40750000D02*
X44710000Y-39770000D01*
X37475000Y-21250000D02*
X36475000Y-22250000D01*
X56560000Y-22060000D02*
X50350000Y-28270000D01*
X38750000Y-40500000D02*
X38740000Y-40510000D01*
X32480000Y-40000000D02*
X32480000Y-40188266D01*
X51000000Y-43000000D02*
X51000000Y-41750000D01*
X25950000Y-29300000D02*
X27650000Y-29300000D01*
X38750000Y-40500000D02*
X38500000Y-40250000D01*
X61250000Y-39550000D02*
X57800000Y-43000000D01*
D34*
X44500000Y-38750000D02*
X44750000Y-39000000D01*
D35*
X37475000Y-21250000D02*
X40250000Y-21250000D01*
X38740000Y-40510000D02*
X37269950Y-40510000D01*
X64050000Y-35418629D02*
X64050000Y-37800000D01*
X63750000Y-35118629D02*
X64050000Y-35418629D01*
D34*
X46425000Y-28500000D02*
X47250000Y-28500000D01*
X44730000Y-39020000D02*
X44730000Y-39750000D01*
X37000000Y-26575000D02*
X36270000Y-25845000D01*
D35*
X41750000Y-21730000D02*
X42020000Y-22000000D01*
D34*
X35075000Y-28500000D02*
X33000000Y-28500000D01*
D35*
X48560000Y-18000000D02*
X50060000Y-16500000D01*
X33945000Y-40000000D02*
X34020000Y-40075000D01*
D34*
X36270000Y-24750000D02*
X36270000Y-22455000D01*
D35*
X50060000Y-16500000D02*
X59120000Y-16500000D01*
X46720000Y-40750000D02*
X50000000Y-40750000D01*
X28845000Y-20250000D02*
X28200000Y-20895000D01*
X28200000Y-28750000D02*
X28750000Y-29300000D01*
X29500000Y-20250000D02*
X28845000Y-20250000D01*
X30500000Y-21250000D02*
X29500000Y-20250000D01*
X37269950Y-40510000D02*
X37369949Y-40609999D01*
X28750000Y-29300000D02*
X32509999Y-29300000D01*
X36120000Y-21895000D02*
X36475000Y-22250000D01*
X62200000Y-39550000D02*
X62250000Y-39600000D01*
D34*
X38000000Y-37925000D02*
X38000000Y-38803120D01*
X47250000Y-28500000D02*
X47500000Y-28250000D01*
D35*
X59700000Y-39550000D02*
X61250000Y-39550000D01*
X25250000Y-30000000D02*
X25950000Y-29300000D01*
X44710000Y-40750000D02*
X39000000Y-40750000D01*
D34*
X36270000Y-22455000D02*
X36475000Y-22250000D01*
%TO.N,/HSE_IN*%
X30500000Y-31520000D02*
X27960000Y-31520000D01*
X35075000Y-30500000D02*
X33750000Y-30500000D01*
X33750000Y-30500000D02*
X32730000Y-31520000D01*
X27960000Y-31520000D02*
X27000000Y-30560000D01*
X32730000Y-31520000D02*
X30500000Y-31520000D01*
%TO.N,/HSE_OUT*%
X34196880Y-31000000D02*
X30716880Y-34480000D01*
X27960000Y-34480000D02*
X27000000Y-35440000D01*
X35075000Y-31000000D02*
X34196880Y-31000000D01*
X30716880Y-34480000D02*
X30500000Y-34480000D01*
X30500000Y-34480000D02*
X27960000Y-34480000D01*
%TO.N,+3.3VA*%
X35075000Y-34500000D02*
X34196880Y-34500000D01*
X34196880Y-34500000D02*
X33950000Y-34746880D01*
X33950000Y-34746880D02*
X33933120Y-34730000D01*
X33933120Y-34730000D02*
X33000000Y-34730000D01*
D35*
X32480000Y-38500000D02*
X33000000Y-38500000D01*
D34*
X33000000Y-34730000D02*
X33000000Y-38500000D01*
D35*
X33000000Y-38500000D02*
X34020000Y-38500000D01*
%TO.N,/I2C1_SDA*%
D34*
X41000000Y-20480000D02*
X43480000Y-18000000D01*
X41000000Y-22000000D02*
X41000000Y-20480000D01*
X38000000Y-26575000D02*
X38000000Y-25000000D01*
X38000000Y-25000000D02*
X41000000Y-22000000D01*
%TO.N,/PWR_LED_K*%
X62250000Y-38025000D02*
X62250000Y-36620000D01*
%TO.N,/I2C1_SCL*%
X43350000Y-22670000D02*
X44020000Y-22000000D01*
X38500000Y-26575000D02*
X38500000Y-25696880D01*
X44020000Y-20000000D02*
X46020000Y-18000000D01*
X44020000Y-22000000D02*
X44020000Y-20000000D01*
X38500000Y-25696880D02*
X41526880Y-22670000D01*
X41526880Y-22670000D02*
X43350000Y-22670000D01*
%TO.N,/NRST*%
X35075000Y-31500000D02*
X35953120Y-31500000D01*
X36500000Y-37046880D02*
X36500000Y-40730000D01*
X35953120Y-31500000D02*
X37250000Y-32796880D01*
X36500000Y-40730000D02*
X37270000Y-41500000D01*
X37250000Y-36296880D02*
X36500000Y-37046880D01*
X37250000Y-32796880D02*
X37250000Y-36296880D01*
%TO.N,/USART1_TX*%
X46020000Y-37359774D02*
X46020000Y-43000000D01*
X40000000Y-26575000D02*
X40000000Y-31339774D01*
X40000000Y-31339774D02*
X46020000Y-37359774D01*
%TO.N,/USART1_RX*%
X39500000Y-31546880D02*
X39500000Y-26575000D01*
X45360000Y-41120000D02*
X45360000Y-37406880D01*
X43480000Y-43000000D02*
X45360000Y-41120000D01*
X45360000Y-37406880D02*
X39500000Y-31546880D01*
%TO.N,/USB_D-*%
D36*
X46425000Y-30500000D02*
X60424999Y-30500000D01*
X60424999Y-30500000D02*
X60524999Y-30600000D01*
X60524999Y-30600000D02*
X61500000Y-30600000D01*
%TO.N,/USB_D+*%
X46475000Y-30050000D02*
X60424999Y-30050000D01*
X46425000Y-30000000D02*
X46475000Y-30050000D01*
X60524999Y-29950000D02*
X61500000Y-29950000D01*
X60424999Y-30050000D02*
X60524999Y-29950000D01*
%TO.N,/SWDIO*%
D34*
X49005000Y-27075000D02*
X58080000Y-18000000D01*
X45250000Y-27750000D02*
X45925000Y-27075000D01*
X46425000Y-29500000D02*
X45546880Y-29500000D01*
X45925000Y-27075000D02*
X49005000Y-27075000D01*
X45546880Y-29500000D02*
X45250000Y-29203120D01*
X45250000Y-29203120D02*
X45250000Y-27750000D01*
%TO.N,/SWCLK*%
X46965000Y-26575000D02*
X55540000Y-18000000D01*
X44500000Y-26575000D02*
X46965000Y-26575000D01*
%TO.N,/BOOT0*%
X39000000Y-27453120D02*
X37753120Y-28700000D01*
X35953120Y-28000000D02*
X33510000Y-28000000D01*
X33510000Y-28000000D02*
X32260000Y-26750000D01*
X39000000Y-26575000D02*
X39000000Y-27453120D01*
X36653120Y-28700000D02*
X35953120Y-28000000D01*
X37753120Y-28700000D02*
X36653120Y-28700000D01*
%TD*%
%TA.AperFunction,Conductor*%
%TO.N,GND*%
G36*
X56982184Y-31780883D02*
G01*
X56986315Y-31781378D01*
X56986328Y-31781381D01*
X56992558Y-31782128D01*
X56992559Y-31782129D01*
X57007721Y-31783949D01*
X57022444Y-31786768D01*
X57022473Y-31786648D01*
X57051783Y-31793659D01*
X57051790Y-31793660D01*
X57051797Y-31793662D01*
X57074337Y-31797946D01*
X57088651Y-31799976D01*
X57102712Y-31801971D01*
X57102720Y-31801971D01*
X57102729Y-31801973D01*
X57125882Y-31804154D01*
X57125894Y-31804154D01*
X57125899Y-31804155D01*
X57136499Y-31804652D01*
X57154519Y-31805499D01*
X57154520Y-31805500D01*
X57154533Y-31805500D01*
X58626000Y-31805500D01*
X58693039Y-31825185D01*
X58738794Y-31877989D01*
X58750000Y-31929500D01*
X58750000Y-36000000D01*
X59500000Y-36500000D01*
X60930808Y-36500000D01*
X60965740Y-36505021D01*
X60990984Y-36512434D01*
X61043730Y-36543730D01*
X61451073Y-36951073D01*
X61472223Y-36979325D01*
X61484831Y-37002414D01*
X61500000Y-37061843D01*
X61500000Y-37607656D01*
X61497819Y-37630808D01*
X61493535Y-37653349D01*
X61487072Y-37675683D01*
X61484522Y-37682148D01*
X61484519Y-37682159D01*
X61479376Y-37724988D01*
X61474500Y-37765597D01*
X61474500Y-37765603D01*
X61474500Y-38108170D01*
X61469475Y-38143114D01*
X61465070Y-38158112D01*
X61427327Y-38216855D01*
X61425958Y-38218042D01*
X61371097Y-38245518D01*
X61363539Y-38247163D01*
X61337168Y-38250000D01*
X56179500Y-38250000D01*
X56112461Y-38230315D01*
X56066706Y-38177511D01*
X56055500Y-38126000D01*
X56055500Y-33874010D01*
X56055500Y-33874000D01*
X56048518Y-33809059D01*
X56037312Y-33757548D01*
X56026354Y-33719342D01*
X56025133Y-33717255D01*
X56016962Y-33703282D01*
X56000000Y-33640682D01*
X56000000Y-31929500D01*
X56019685Y-31862461D01*
X56072489Y-31816706D01*
X56124000Y-31805500D01*
X56245478Y-31805500D01*
X56274126Y-31804153D01*
X56284677Y-31803158D01*
X56297282Y-31801971D01*
X56325680Y-31797943D01*
X56348220Y-31793658D01*
X56357116Y-31791529D01*
X56377509Y-31786652D01*
X56377536Y-31786768D01*
X56392263Y-31783951D01*
X56407443Y-31782129D01*
X56417814Y-31780884D01*
X56432594Y-31780000D01*
X56967414Y-31780000D01*
X56982184Y-31780883D01*
G37*
%TD.AperFunction*%
%TD*%
%TA.AperFunction,Conductor*%
%TO.N,+3.3V*%
G36*
X55693039Y-33769685D02*
G01*
X55738794Y-33822489D01*
X55750000Y-33874000D01*
X55750000Y-38750000D01*
X60876000Y-38750000D01*
X60943039Y-38769685D01*
X60988794Y-38822489D01*
X61000000Y-38874000D01*
X61000000Y-40376000D01*
X60980315Y-40443039D01*
X60927511Y-40488794D01*
X60876000Y-40500000D01*
X57250000Y-40500000D01*
X57250000Y-42376000D01*
X57230315Y-42443039D01*
X57177511Y-42488794D01*
X57126000Y-42500000D01*
X52624000Y-42500000D01*
X52556961Y-42480315D01*
X52511206Y-42427511D01*
X52500000Y-42376000D01*
X52500000Y-40785563D01*
X52518848Y-40719843D01*
X52663254Y-40488794D01*
X53750000Y-38750000D01*
X53750000Y-33874000D01*
X53769685Y-33806961D01*
X53822489Y-33761206D01*
X53874000Y-33750000D01*
X55626000Y-33750000D01*
X55693039Y-33769685D01*
G37*
%TD.AperFunction*%
%TD*%
%TA.AperFunction,Conductor*%
%TO.N,VBUS*%
G36*
X60464389Y-31000265D02*
G01*
X60466913Y-31000430D01*
X60467977Y-31000500D01*
X60472272Y-31000500D01*
X60597237Y-31000500D01*
X60610130Y-31003581D01*
X60619874Y-31002584D01*
X60632169Y-31005521D01*
X60657413Y-31012934D01*
X60692688Y-31033865D01*
X60707099Y-31041170D01*
X60716713Y-31050784D01*
X60716716Y-31050786D01*
X60716719Y-31050789D01*
X60833285Y-31110182D01*
X60833286Y-31110182D01*
X60833288Y-31110183D01*
X60833287Y-31110183D01*
X60876618Y-31117045D01*
X60929997Y-31125500D01*
X62070002Y-31125499D01*
X62121369Y-31125499D01*
X62121369Y-31128881D01*
X62165906Y-31132049D01*
X62221856Y-31173898D01*
X62241084Y-31211613D01*
X62244465Y-31222546D01*
X62250000Y-31259181D01*
X62250000Y-31358170D01*
X62244975Y-31393114D01*
X62240570Y-31408112D01*
X62202827Y-31466855D01*
X62201458Y-31468042D01*
X62146597Y-31495518D01*
X62139039Y-31497163D01*
X62112668Y-31500000D01*
X57154533Y-31500000D01*
X57131380Y-31497819D01*
X57108840Y-31493535D01*
X57086493Y-31487066D01*
X57081565Y-31485122D01*
X57028978Y-31478808D01*
X57028976Y-31478807D01*
X57006993Y-31476168D01*
X56993102Y-31474500D01*
X56993098Y-31474500D01*
X56406902Y-31474500D01*
X56406898Y-31474500D01*
X56373713Y-31478485D01*
X56318437Y-31485121D01*
X56318431Y-31485123D01*
X56313492Y-31487071D01*
X56291164Y-31493533D01*
X56268624Y-31497818D01*
X56245466Y-31500000D01*
X55500000Y-31500000D01*
X55500000Y-33320500D01*
X55480315Y-33387539D01*
X55427511Y-33433294D01*
X55376000Y-33444500D01*
X53874000Y-33444500D01*
X53873991Y-33444500D01*
X53873990Y-33444501D01*
X53809064Y-33451481D01*
X53809052Y-33451483D01*
X53757546Y-33462688D01*
X53719345Y-33473644D01*
X53719337Y-33473648D01*
X53703282Y-33483038D01*
X53640682Y-33500000D01*
X53500000Y-33500000D01*
X53500000Y-33645077D01*
X53486533Y-33701276D01*
X53476561Y-33720889D01*
X53476560Y-33720891D01*
X53476560Y-33720892D01*
X53456877Y-33787921D01*
X53444500Y-33874002D01*
X53444500Y-36126000D01*
X53424815Y-36193039D01*
X53372011Y-36238794D01*
X53320500Y-36250000D01*
X51641830Y-36250000D01*
X51606889Y-36244975D01*
X51591890Y-36240570D01*
X51533144Y-36202827D01*
X51531957Y-36201458D01*
X51504477Y-36146583D01*
X51502832Y-36139021D01*
X51500000Y-36112668D01*
X51500000Y-31141829D01*
X51505023Y-31106893D01*
X51509427Y-31091895D01*
X51547172Y-31033144D01*
X51548541Y-31031957D01*
X51603420Y-31004477D01*
X51610979Y-31002833D01*
X51637332Y-31000000D01*
X60456287Y-31000000D01*
X60464389Y-31000265D01*
G37*
%TD.AperFunction*%
%TD*%
M02*
