%TF.GenerationSoftware,KiCad,Pcbnew,10.0.6*%
%TF.CreationDate,2026-09-28T21:12:06+07:00*%
%TF.ProjectId,STM32,53544d33-322e-46b6-9963-61645f706362,rev?*%
%TF.SameCoordinates,Original*%
%TF.FileFunction,Legend,Top*%
%TF.FilePolarity,Positive*%
%FSLAX46Y46*%
G04 Gerber Fmt 4.6, Leading zero omitted, Abs format (unit mm)*
G04 Created by KiCad (PCBNEW 10.0.6) date 2026-09-28 21:12:06*
%MOMM*%
%LPD*%
G01*
G04 APERTURE LIST*
%ADD10C,0.200000*%
%ADD11C,0.150000*%
%ADD12C,0.120000*%
G04 APERTURE END LIST*
D10*
X28845863Y-19931861D02*
X29024435Y-19991385D01*
X29024435Y-19991385D02*
X29083958Y-20050909D01*
X29083958Y-20050909D02*
X29143482Y-20169957D01*
X29143482Y-20169957D02*
X29143482Y-20348528D01*
X29143482Y-20348528D02*
X29083958Y-20467576D01*
X29083958Y-20467576D02*
X29024435Y-20527100D01*
X29024435Y-20527100D02*
X28905387Y-20586623D01*
X28905387Y-20586623D02*
X28429197Y-20586623D01*
X28429197Y-20586623D02*
X28429197Y-19336623D01*
X28429197Y-19336623D02*
X28845863Y-19336623D01*
X28845863Y-19336623D02*
X28964911Y-19396147D01*
X28964911Y-19396147D02*
X29024435Y-19455671D01*
X29024435Y-19455671D02*
X29083958Y-19574719D01*
X29083958Y-19574719D02*
X29083958Y-19693766D01*
X29083958Y-19693766D02*
X29024435Y-19812814D01*
X29024435Y-19812814D02*
X28964911Y-19872338D01*
X28964911Y-19872338D02*
X28845863Y-19931861D01*
X28845863Y-19931861D02*
X28429197Y-19931861D01*
X29917292Y-19336623D02*
X30155387Y-19336623D01*
X30155387Y-19336623D02*
X30274435Y-19396147D01*
X30274435Y-19396147D02*
X30393482Y-19515195D01*
X30393482Y-19515195D02*
X30453006Y-19753290D01*
X30453006Y-19753290D02*
X30453006Y-20169957D01*
X30453006Y-20169957D02*
X30393482Y-20408052D01*
X30393482Y-20408052D02*
X30274435Y-20527100D01*
X30274435Y-20527100D02*
X30155387Y-20586623D01*
X30155387Y-20586623D02*
X29917292Y-20586623D01*
X29917292Y-20586623D02*
X29798244Y-20527100D01*
X29798244Y-20527100D02*
X29679197Y-20408052D01*
X29679197Y-20408052D02*
X29619673Y-20169957D01*
X29619673Y-20169957D02*
X29619673Y-19753290D01*
X29619673Y-19753290D02*
X29679197Y-19515195D01*
X29679197Y-19515195D02*
X29798244Y-19396147D01*
X29798244Y-19396147D02*
X29917292Y-19336623D01*
X31226816Y-19336623D02*
X31464911Y-19336623D01*
X31464911Y-19336623D02*
X31583959Y-19396147D01*
X31583959Y-19396147D02*
X31703006Y-19515195D01*
X31703006Y-19515195D02*
X31762530Y-19753290D01*
X31762530Y-19753290D02*
X31762530Y-20169957D01*
X31762530Y-20169957D02*
X31703006Y-20408052D01*
X31703006Y-20408052D02*
X31583959Y-20527100D01*
X31583959Y-20527100D02*
X31464911Y-20586623D01*
X31464911Y-20586623D02*
X31226816Y-20586623D01*
X31226816Y-20586623D02*
X31107768Y-20527100D01*
X31107768Y-20527100D02*
X30988721Y-20408052D01*
X30988721Y-20408052D02*
X30929197Y-20169957D01*
X30929197Y-20169957D02*
X30929197Y-19753290D01*
X30929197Y-19753290D02*
X30988721Y-19515195D01*
X30988721Y-19515195D02*
X31107768Y-19396147D01*
X31107768Y-19396147D02*
X31226816Y-19336623D01*
X32119673Y-19336623D02*
X32833959Y-19336623D01*
X32476816Y-20586623D02*
X32476816Y-19336623D01*
X46119673Y-21277100D02*
X46298244Y-21336623D01*
X46298244Y-21336623D02*
X46595863Y-21336623D01*
X46595863Y-21336623D02*
X46714911Y-21277100D01*
X46714911Y-21277100D02*
X46774435Y-21217576D01*
X46774435Y-21217576D02*
X46833958Y-21098528D01*
X46833958Y-21098528D02*
X46833958Y-20979480D01*
X46833958Y-20979480D02*
X46774435Y-20860433D01*
X46774435Y-20860433D02*
X46714911Y-20800909D01*
X46714911Y-20800909D02*
X46595863Y-20741385D01*
X46595863Y-20741385D02*
X46357768Y-20681861D01*
X46357768Y-20681861D02*
X46238720Y-20622338D01*
X46238720Y-20622338D02*
X46179197Y-20562814D01*
X46179197Y-20562814D02*
X46119673Y-20443766D01*
X46119673Y-20443766D02*
X46119673Y-20324719D01*
X46119673Y-20324719D02*
X46179197Y-20205671D01*
X46179197Y-20205671D02*
X46238720Y-20146147D01*
X46238720Y-20146147D02*
X46357768Y-20086623D01*
X46357768Y-20086623D02*
X46655387Y-20086623D01*
X46655387Y-20086623D02*
X46833958Y-20146147D01*
X47250625Y-20086623D02*
X47548244Y-21336623D01*
X47548244Y-21336623D02*
X47786339Y-20443766D01*
X47786339Y-20443766D02*
X48024434Y-21336623D01*
X48024434Y-21336623D02*
X48322054Y-20086623D01*
X48798244Y-21336623D02*
X48798244Y-20086623D01*
X48798244Y-20086623D02*
X49095863Y-20086623D01*
X49095863Y-20086623D02*
X49274434Y-20146147D01*
X49274434Y-20146147D02*
X49393482Y-20265195D01*
X49393482Y-20265195D02*
X49453005Y-20384242D01*
X49453005Y-20384242D02*
X49512529Y-20622338D01*
X49512529Y-20622338D02*
X49512529Y-20800909D01*
X49512529Y-20800909D02*
X49453005Y-21039004D01*
X49453005Y-21039004D02*
X49393482Y-21158052D01*
X49393482Y-21158052D02*
X49274434Y-21277100D01*
X49274434Y-21277100D02*
X49095863Y-21336623D01*
X49095863Y-21336623D02*
X48798244Y-21336623D01*
X50679197Y-43336623D02*
X50679197Y-44348528D01*
X50679197Y-44348528D02*
X50738720Y-44467576D01*
X50738720Y-44467576D02*
X50798244Y-44527100D01*
X50798244Y-44527100D02*
X50917292Y-44586623D01*
X50917292Y-44586623D02*
X51155387Y-44586623D01*
X51155387Y-44586623D02*
X51274435Y-44527100D01*
X51274435Y-44527100D02*
X51333958Y-44467576D01*
X51333958Y-44467576D02*
X51393482Y-44348528D01*
X51393482Y-44348528D02*
X51393482Y-43336623D01*
X51929197Y-44229480D02*
X52524435Y-44229480D01*
X51810149Y-44586623D02*
X52226816Y-43336623D01*
X52226816Y-43336623D02*
X52643482Y-44586623D01*
X53774435Y-44586623D02*
X53357769Y-43991385D01*
X53060150Y-44586623D02*
X53060150Y-43336623D01*
X53060150Y-43336623D02*
X53536340Y-43336623D01*
X53536340Y-43336623D02*
X53655388Y-43396147D01*
X53655388Y-43396147D02*
X53714911Y-43455671D01*
X53714911Y-43455671D02*
X53774435Y-43574719D01*
X53774435Y-43574719D02*
X53774435Y-43753290D01*
X53774435Y-43753290D02*
X53714911Y-43872338D01*
X53714911Y-43872338D02*
X53655388Y-43931861D01*
X53655388Y-43931861D02*
X53536340Y-43991385D01*
X53536340Y-43991385D02*
X53060150Y-43991385D01*
X54131578Y-43336623D02*
X54845864Y-43336623D01*
X54488721Y-44586623D02*
X54488721Y-43336623D01*
X51679197Y-21336623D02*
X51679197Y-20086623D01*
X52214911Y-20205671D02*
X52274435Y-20146147D01*
X52274435Y-20146147D02*
X52393482Y-20086623D01*
X52393482Y-20086623D02*
X52691101Y-20086623D01*
X52691101Y-20086623D02*
X52810149Y-20146147D01*
X52810149Y-20146147D02*
X52869673Y-20205671D01*
X52869673Y-20205671D02*
X52929196Y-20324719D01*
X52929196Y-20324719D02*
X52929196Y-20443766D01*
X52929196Y-20443766D02*
X52869673Y-20622338D01*
X52869673Y-20622338D02*
X52155387Y-21336623D01*
X52155387Y-21336623D02*
X52929196Y-21336623D01*
X54179196Y-21217576D02*
X54119672Y-21277100D01*
X54119672Y-21277100D02*
X53941101Y-21336623D01*
X53941101Y-21336623D02*
X53822053Y-21336623D01*
X53822053Y-21336623D02*
X53643482Y-21277100D01*
X53643482Y-21277100D02*
X53524434Y-21158052D01*
X53524434Y-21158052D02*
X53464911Y-21039004D01*
X53464911Y-21039004D02*
X53405387Y-20800909D01*
X53405387Y-20800909D02*
X53405387Y-20622338D01*
X53405387Y-20622338D02*
X53464911Y-20384242D01*
X53464911Y-20384242D02*
X53524434Y-20265195D01*
X53524434Y-20265195D02*
X53643482Y-20146147D01*
X53643482Y-20146147D02*
X53822053Y-20086623D01*
X53822053Y-20086623D02*
X53941101Y-20086623D01*
X53941101Y-20086623D02*
X54119672Y-20146147D01*
X54119672Y-20146147D02*
X54179196Y-20205671D01*
X64179197Y-23086623D02*
X64179197Y-24098528D01*
X64179197Y-24098528D02*
X64238720Y-24217576D01*
X64238720Y-24217576D02*
X64298244Y-24277100D01*
X64298244Y-24277100D02*
X64417292Y-24336623D01*
X64417292Y-24336623D02*
X64655387Y-24336623D01*
X64655387Y-24336623D02*
X64774435Y-24277100D01*
X64774435Y-24277100D02*
X64833958Y-24217576D01*
X64833958Y-24217576D02*
X64893482Y-24098528D01*
X64893482Y-24098528D02*
X64893482Y-23086623D01*
X65429197Y-24277100D02*
X65607768Y-24336623D01*
X65607768Y-24336623D02*
X65905387Y-24336623D01*
X65905387Y-24336623D02*
X66024435Y-24277100D01*
X66024435Y-24277100D02*
X66083959Y-24217576D01*
X66083959Y-24217576D02*
X66143482Y-24098528D01*
X66143482Y-24098528D02*
X66143482Y-23979480D01*
X66143482Y-23979480D02*
X66083959Y-23860433D01*
X66083959Y-23860433D02*
X66024435Y-23800909D01*
X66024435Y-23800909D02*
X65905387Y-23741385D01*
X65905387Y-23741385D02*
X65667292Y-23681861D01*
X65667292Y-23681861D02*
X65548244Y-23622338D01*
X65548244Y-23622338D02*
X65488721Y-23562814D01*
X65488721Y-23562814D02*
X65429197Y-23443766D01*
X65429197Y-23443766D02*
X65429197Y-23324719D01*
X65429197Y-23324719D02*
X65488721Y-23205671D01*
X65488721Y-23205671D02*
X65548244Y-23146147D01*
X65548244Y-23146147D02*
X65667292Y-23086623D01*
X65667292Y-23086623D02*
X65964911Y-23086623D01*
X65964911Y-23086623D02*
X66143482Y-23146147D01*
X67095863Y-23681861D02*
X67274435Y-23741385D01*
X67274435Y-23741385D02*
X67333958Y-23800909D01*
X67333958Y-23800909D02*
X67393482Y-23919957D01*
X67393482Y-23919957D02*
X67393482Y-24098528D01*
X67393482Y-24098528D02*
X67333958Y-24217576D01*
X67333958Y-24217576D02*
X67274435Y-24277100D01*
X67274435Y-24277100D02*
X67155387Y-24336623D01*
X67155387Y-24336623D02*
X66679197Y-24336623D01*
X66679197Y-24336623D02*
X66679197Y-23086623D01*
X66679197Y-23086623D02*
X67095863Y-23086623D01*
X67095863Y-23086623D02*
X67214911Y-23146147D01*
X67214911Y-23146147D02*
X67274435Y-23205671D01*
X67274435Y-23205671D02*
X67333958Y-23324719D01*
X67333958Y-23324719D02*
X67333958Y-23443766D01*
X67333958Y-23443766D02*
X67274435Y-23562814D01*
X67274435Y-23562814D02*
X67214911Y-23622338D01*
X67214911Y-23622338D02*
X67095863Y-23681861D01*
X67095863Y-23681861D02*
X66679197Y-23681861D01*
D11*
X42083333Y-40109580D02*
X42035714Y-40157200D01*
X42035714Y-40157200D02*
X41892857Y-40204819D01*
X41892857Y-40204819D02*
X41797619Y-40204819D01*
X41797619Y-40204819D02*
X41654762Y-40157200D01*
X41654762Y-40157200D02*
X41559524Y-40061961D01*
X41559524Y-40061961D02*
X41511905Y-39966723D01*
X41511905Y-39966723D02*
X41464286Y-39776247D01*
X41464286Y-39776247D02*
X41464286Y-39633390D01*
X41464286Y-39633390D02*
X41511905Y-39442914D01*
X41511905Y-39442914D02*
X41559524Y-39347676D01*
X41559524Y-39347676D02*
X41654762Y-39252438D01*
X41654762Y-39252438D02*
X41797619Y-39204819D01*
X41797619Y-39204819D02*
X41892857Y-39204819D01*
X41892857Y-39204819D02*
X42035714Y-39252438D01*
X42035714Y-39252438D02*
X42083333Y-39300057D01*
X42559524Y-40204819D02*
X42750000Y-40204819D01*
X42750000Y-40204819D02*
X42845238Y-40157200D01*
X42845238Y-40157200D02*
X42892857Y-40109580D01*
X42892857Y-40109580D02*
X42988095Y-39966723D01*
X42988095Y-39966723D02*
X43035714Y-39776247D01*
X43035714Y-39776247D02*
X43035714Y-39395295D01*
X43035714Y-39395295D02*
X42988095Y-39300057D01*
X42988095Y-39300057D02*
X42940476Y-39252438D01*
X42940476Y-39252438D02*
X42845238Y-39204819D01*
X42845238Y-39204819D02*
X42654762Y-39204819D01*
X42654762Y-39204819D02*
X42559524Y-39252438D01*
X42559524Y-39252438D02*
X42511905Y-39300057D01*
X42511905Y-39300057D02*
X42464286Y-39395295D01*
X42464286Y-39395295D02*
X42464286Y-39633390D01*
X42464286Y-39633390D02*
X42511905Y-39728628D01*
X42511905Y-39728628D02*
X42559524Y-39776247D01*
X42559524Y-39776247D02*
X42654762Y-39823866D01*
X42654762Y-39823866D02*
X42845238Y-39823866D01*
X42845238Y-39823866D02*
X42940476Y-39776247D01*
X42940476Y-39776247D02*
X42988095Y-39728628D01*
X42988095Y-39728628D02*
X43035714Y-39633390D01*
X24273809Y-26728628D02*
X24273809Y-27204819D01*
X23940476Y-26204819D02*
X24273809Y-26728628D01*
X24273809Y-26728628D02*
X24607142Y-26204819D01*
X25464285Y-27204819D02*
X24892857Y-27204819D01*
X25178571Y-27204819D02*
X25178571Y-26204819D01*
X25178571Y-26204819D02*
X25083333Y-26347676D01*
X25083333Y-26347676D02*
X24988095Y-26442914D01*
X24988095Y-26442914D02*
X24892857Y-26490533D01*
X33609580Y-32392857D02*
X33657200Y-32440476D01*
X33657200Y-32440476D02*
X33704819Y-32583333D01*
X33704819Y-32583333D02*
X33704819Y-32678571D01*
X33704819Y-32678571D02*
X33657200Y-32821428D01*
X33657200Y-32821428D02*
X33561961Y-32916666D01*
X33561961Y-32916666D02*
X33466723Y-32964285D01*
X33466723Y-32964285D02*
X33276247Y-33011904D01*
X33276247Y-33011904D02*
X33133390Y-33011904D01*
X33133390Y-33011904D02*
X32942914Y-32964285D01*
X32942914Y-32964285D02*
X32847676Y-32916666D01*
X32847676Y-32916666D02*
X32752438Y-32821428D01*
X32752438Y-32821428D02*
X32704819Y-32678571D01*
X32704819Y-32678571D02*
X32704819Y-32583333D01*
X32704819Y-32583333D02*
X32752438Y-32440476D01*
X32752438Y-32440476D02*
X32800057Y-32392857D01*
X33704819Y-31440476D02*
X33704819Y-32011904D01*
X33704819Y-31726190D02*
X32704819Y-31726190D01*
X32704819Y-31726190D02*
X32847676Y-31821428D01*
X32847676Y-31821428D02*
X32942914Y-31916666D01*
X32942914Y-31916666D02*
X32990533Y-32011904D01*
X32800057Y-31059523D02*
X32752438Y-31011904D01*
X32752438Y-31011904D02*
X32704819Y-30916666D01*
X32704819Y-30916666D02*
X32704819Y-30678571D01*
X32704819Y-30678571D02*
X32752438Y-30583333D01*
X32752438Y-30583333D02*
X32800057Y-30535714D01*
X32800057Y-30535714D02*
X32895295Y-30488095D01*
X32895295Y-30488095D02*
X32990533Y-30488095D01*
X32990533Y-30488095D02*
X33133390Y-30535714D01*
X33133390Y-30535714D02*
X33704819Y-31107142D01*
X33704819Y-31107142D02*
X33704819Y-30488095D01*
X59533333Y-36509580D02*
X59485714Y-36557200D01*
X59485714Y-36557200D02*
X59342857Y-36604819D01*
X59342857Y-36604819D02*
X59247619Y-36604819D01*
X59247619Y-36604819D02*
X59104762Y-36557200D01*
X59104762Y-36557200D02*
X59009524Y-36461961D01*
X59009524Y-36461961D02*
X58961905Y-36366723D01*
X58961905Y-36366723D02*
X58914286Y-36176247D01*
X58914286Y-36176247D02*
X58914286Y-36033390D01*
X58914286Y-36033390D02*
X58961905Y-35842914D01*
X58961905Y-35842914D02*
X59009524Y-35747676D01*
X59009524Y-35747676D02*
X59104762Y-35652438D01*
X59104762Y-35652438D02*
X59247619Y-35604819D01*
X59247619Y-35604819D02*
X59342857Y-35604819D01*
X59342857Y-35604819D02*
X59485714Y-35652438D01*
X59485714Y-35652438D02*
X59533333Y-35700057D01*
X59914286Y-35700057D02*
X59961905Y-35652438D01*
X59961905Y-35652438D02*
X60057143Y-35604819D01*
X60057143Y-35604819D02*
X60295238Y-35604819D01*
X60295238Y-35604819D02*
X60390476Y-35652438D01*
X60390476Y-35652438D02*
X60438095Y-35700057D01*
X60438095Y-35700057D02*
X60485714Y-35795295D01*
X60485714Y-35795295D02*
X60485714Y-35890533D01*
X60485714Y-35890533D02*
X60438095Y-36033390D01*
X60438095Y-36033390D02*
X59866667Y-36604819D01*
X59866667Y-36604819D02*
X60485714Y-36604819D01*
X52583333Y-32859580D02*
X52535714Y-32907200D01*
X52535714Y-32907200D02*
X52392857Y-32954819D01*
X52392857Y-32954819D02*
X52297619Y-32954819D01*
X52297619Y-32954819D02*
X52154762Y-32907200D01*
X52154762Y-32907200D02*
X52059524Y-32811961D01*
X52059524Y-32811961D02*
X52011905Y-32716723D01*
X52011905Y-32716723D02*
X51964286Y-32526247D01*
X51964286Y-32526247D02*
X51964286Y-32383390D01*
X51964286Y-32383390D02*
X52011905Y-32192914D01*
X52011905Y-32192914D02*
X52059524Y-32097676D01*
X52059524Y-32097676D02*
X52154762Y-32002438D01*
X52154762Y-32002438D02*
X52297619Y-31954819D01*
X52297619Y-31954819D02*
X52392857Y-31954819D01*
X52392857Y-31954819D02*
X52535714Y-32002438D01*
X52535714Y-32002438D02*
X52583333Y-32050057D01*
X53535714Y-32954819D02*
X52964286Y-32954819D01*
X53250000Y-32954819D02*
X53250000Y-31954819D01*
X53250000Y-31954819D02*
X53154762Y-32097676D01*
X53154762Y-32097676D02*
X53059524Y-32192914D01*
X53059524Y-32192914D02*
X52964286Y-32240533D01*
X41333333Y-24704819D02*
X41000000Y-24228628D01*
X40761905Y-24704819D02*
X40761905Y-23704819D01*
X40761905Y-23704819D02*
X41142857Y-23704819D01*
X41142857Y-23704819D02*
X41238095Y-23752438D01*
X41238095Y-23752438D02*
X41285714Y-23800057D01*
X41285714Y-23800057D02*
X41333333Y-23895295D01*
X41333333Y-23895295D02*
X41333333Y-24038152D01*
X41333333Y-24038152D02*
X41285714Y-24133390D01*
X41285714Y-24133390D02*
X41238095Y-24181009D01*
X41238095Y-24181009D02*
X41142857Y-24228628D01*
X41142857Y-24228628D02*
X40761905Y-24228628D01*
X41666667Y-23704819D02*
X42285714Y-23704819D01*
X42285714Y-23704819D02*
X41952381Y-24085771D01*
X41952381Y-24085771D02*
X42095238Y-24085771D01*
X42095238Y-24085771D02*
X42190476Y-24133390D01*
X42190476Y-24133390D02*
X42238095Y-24181009D01*
X42238095Y-24181009D02*
X42285714Y-24276247D01*
X42285714Y-24276247D02*
X42285714Y-24514342D01*
X42285714Y-24514342D02*
X42238095Y-24609580D01*
X42238095Y-24609580D02*
X42190476Y-24657200D01*
X42190476Y-24657200D02*
X42095238Y-24704819D01*
X42095238Y-24704819D02*
X41809524Y-24704819D01*
X41809524Y-24704819D02*
X41714286Y-24657200D01*
X41714286Y-24657200D02*
X41666667Y-24609580D01*
X30333333Y-35859580D02*
X30285714Y-35907200D01*
X30285714Y-35907200D02*
X30142857Y-35954819D01*
X30142857Y-35954819D02*
X30047619Y-35954819D01*
X30047619Y-35954819D02*
X29904762Y-35907200D01*
X29904762Y-35907200D02*
X29809524Y-35811961D01*
X29809524Y-35811961D02*
X29761905Y-35716723D01*
X29761905Y-35716723D02*
X29714286Y-35526247D01*
X29714286Y-35526247D02*
X29714286Y-35383390D01*
X29714286Y-35383390D02*
X29761905Y-35192914D01*
X29761905Y-35192914D02*
X29809524Y-35097676D01*
X29809524Y-35097676D02*
X29904762Y-35002438D01*
X29904762Y-35002438D02*
X30047619Y-34954819D01*
X30047619Y-34954819D02*
X30142857Y-34954819D01*
X30142857Y-34954819D02*
X30285714Y-35002438D01*
X30285714Y-35002438D02*
X30333333Y-35050057D01*
X30904762Y-35383390D02*
X30809524Y-35335771D01*
X30809524Y-35335771D02*
X30761905Y-35288152D01*
X30761905Y-35288152D02*
X30714286Y-35192914D01*
X30714286Y-35192914D02*
X30714286Y-35145295D01*
X30714286Y-35145295D02*
X30761905Y-35050057D01*
X30761905Y-35050057D02*
X30809524Y-35002438D01*
X30809524Y-35002438D02*
X30904762Y-34954819D01*
X30904762Y-34954819D02*
X31095238Y-34954819D01*
X31095238Y-34954819D02*
X31190476Y-35002438D01*
X31190476Y-35002438D02*
X31238095Y-35050057D01*
X31238095Y-35050057D02*
X31285714Y-35145295D01*
X31285714Y-35145295D02*
X31285714Y-35192914D01*
X31285714Y-35192914D02*
X31238095Y-35288152D01*
X31238095Y-35288152D02*
X31190476Y-35335771D01*
X31190476Y-35335771D02*
X31095238Y-35383390D01*
X31095238Y-35383390D02*
X30904762Y-35383390D01*
X30904762Y-35383390D02*
X30809524Y-35431009D01*
X30809524Y-35431009D02*
X30761905Y-35478628D01*
X30761905Y-35478628D02*
X30714286Y-35573866D01*
X30714286Y-35573866D02*
X30714286Y-35764342D01*
X30714286Y-35764342D02*
X30761905Y-35859580D01*
X30761905Y-35859580D02*
X30809524Y-35907200D01*
X30809524Y-35907200D02*
X30904762Y-35954819D01*
X30904762Y-35954819D02*
X31095238Y-35954819D01*
X31095238Y-35954819D02*
X31190476Y-35907200D01*
X31190476Y-35907200D02*
X31238095Y-35859580D01*
X31238095Y-35859580D02*
X31285714Y-35764342D01*
X31285714Y-35764342D02*
X31285714Y-35573866D01*
X31285714Y-35573866D02*
X31238095Y-35478628D01*
X31238095Y-35478628D02*
X31190476Y-35431009D01*
X31190476Y-35431009D02*
X31095238Y-35383390D01*
X29833333Y-28859580D02*
X29785714Y-28907200D01*
X29785714Y-28907200D02*
X29642857Y-28954819D01*
X29642857Y-28954819D02*
X29547619Y-28954819D01*
X29547619Y-28954819D02*
X29404762Y-28907200D01*
X29404762Y-28907200D02*
X29309524Y-28811961D01*
X29309524Y-28811961D02*
X29261905Y-28716723D01*
X29261905Y-28716723D02*
X29214286Y-28526247D01*
X29214286Y-28526247D02*
X29214286Y-28383390D01*
X29214286Y-28383390D02*
X29261905Y-28192914D01*
X29261905Y-28192914D02*
X29309524Y-28097676D01*
X29309524Y-28097676D02*
X29404762Y-28002438D01*
X29404762Y-28002438D02*
X29547619Y-27954819D01*
X29547619Y-27954819D02*
X29642857Y-27954819D01*
X29642857Y-27954819D02*
X29785714Y-28002438D01*
X29785714Y-28002438D02*
X29833333Y-28050057D01*
X30690476Y-27954819D02*
X30500000Y-27954819D01*
X30500000Y-27954819D02*
X30404762Y-28002438D01*
X30404762Y-28002438D02*
X30357143Y-28050057D01*
X30357143Y-28050057D02*
X30261905Y-28192914D01*
X30261905Y-28192914D02*
X30214286Y-28383390D01*
X30214286Y-28383390D02*
X30214286Y-28764342D01*
X30214286Y-28764342D02*
X30261905Y-28859580D01*
X30261905Y-28859580D02*
X30309524Y-28907200D01*
X30309524Y-28907200D02*
X30404762Y-28954819D01*
X30404762Y-28954819D02*
X30595238Y-28954819D01*
X30595238Y-28954819D02*
X30690476Y-28907200D01*
X30690476Y-28907200D02*
X30738095Y-28859580D01*
X30738095Y-28859580D02*
X30785714Y-28764342D01*
X30785714Y-28764342D02*
X30785714Y-28526247D01*
X30785714Y-28526247D02*
X30738095Y-28431009D01*
X30738095Y-28431009D02*
X30690476Y-28383390D01*
X30690476Y-28383390D02*
X30595238Y-28335771D01*
X30595238Y-28335771D02*
X30404762Y-28335771D01*
X30404762Y-28335771D02*
X30309524Y-28383390D01*
X30309524Y-28383390D02*
X30261905Y-28431009D01*
X30261905Y-28431009D02*
X30214286Y-28526247D01*
X30607142Y-37359580D02*
X30559523Y-37407200D01*
X30559523Y-37407200D02*
X30416666Y-37454819D01*
X30416666Y-37454819D02*
X30321428Y-37454819D01*
X30321428Y-37454819D02*
X30178571Y-37407200D01*
X30178571Y-37407200D02*
X30083333Y-37311961D01*
X30083333Y-37311961D02*
X30035714Y-37216723D01*
X30035714Y-37216723D02*
X29988095Y-37026247D01*
X29988095Y-37026247D02*
X29988095Y-36883390D01*
X29988095Y-36883390D02*
X30035714Y-36692914D01*
X30035714Y-36692914D02*
X30083333Y-36597676D01*
X30083333Y-36597676D02*
X30178571Y-36502438D01*
X30178571Y-36502438D02*
X30321428Y-36454819D01*
X30321428Y-36454819D02*
X30416666Y-36454819D01*
X30416666Y-36454819D02*
X30559523Y-36502438D01*
X30559523Y-36502438D02*
X30607142Y-36550057D01*
X31559523Y-37454819D02*
X30988095Y-37454819D01*
X31273809Y-37454819D02*
X31273809Y-36454819D01*
X31273809Y-36454819D02*
X31178571Y-36597676D01*
X31178571Y-36597676D02*
X31083333Y-36692914D01*
X31083333Y-36692914D02*
X30988095Y-36740533D01*
X31892857Y-36454819D02*
X32511904Y-36454819D01*
X32511904Y-36454819D02*
X32178571Y-36835771D01*
X32178571Y-36835771D02*
X32321428Y-36835771D01*
X32321428Y-36835771D02*
X32416666Y-36883390D01*
X32416666Y-36883390D02*
X32464285Y-36931009D01*
X32464285Y-36931009D02*
X32511904Y-37026247D01*
X32511904Y-37026247D02*
X32511904Y-37264342D01*
X32511904Y-37264342D02*
X32464285Y-37359580D01*
X32464285Y-37359580D02*
X32416666Y-37407200D01*
X32416666Y-37407200D02*
X32321428Y-37454819D01*
X32321428Y-37454819D02*
X32035714Y-37454819D01*
X32035714Y-37454819D02*
X31940476Y-37407200D01*
X31940476Y-37407200D02*
X31892857Y-37359580D01*
X30607142Y-42109580D02*
X30559523Y-42157200D01*
X30559523Y-42157200D02*
X30416666Y-42204819D01*
X30416666Y-42204819D02*
X30321428Y-42204819D01*
X30321428Y-42204819D02*
X30178571Y-42157200D01*
X30178571Y-42157200D02*
X30083333Y-42061961D01*
X30083333Y-42061961D02*
X30035714Y-41966723D01*
X30035714Y-41966723D02*
X29988095Y-41776247D01*
X29988095Y-41776247D02*
X29988095Y-41633390D01*
X29988095Y-41633390D02*
X30035714Y-41442914D01*
X30035714Y-41442914D02*
X30083333Y-41347676D01*
X30083333Y-41347676D02*
X30178571Y-41252438D01*
X30178571Y-41252438D02*
X30321428Y-41204819D01*
X30321428Y-41204819D02*
X30416666Y-41204819D01*
X30416666Y-41204819D02*
X30559523Y-41252438D01*
X30559523Y-41252438D02*
X30607142Y-41300057D01*
X31559523Y-42204819D02*
X30988095Y-42204819D01*
X31273809Y-42204819D02*
X31273809Y-41204819D01*
X31273809Y-41204819D02*
X31178571Y-41347676D01*
X31178571Y-41347676D02*
X31083333Y-41442914D01*
X31083333Y-41442914D02*
X30988095Y-41490533D01*
X32416666Y-41538152D02*
X32416666Y-42204819D01*
X32178571Y-41157200D02*
X31940476Y-41871485D01*
X31940476Y-41871485D02*
X32559523Y-41871485D01*
X63811905Y-38454819D02*
X63811905Y-37454819D01*
X63811905Y-37454819D02*
X64050000Y-37454819D01*
X64050000Y-37454819D02*
X64192857Y-37502438D01*
X64192857Y-37502438D02*
X64288095Y-37597676D01*
X64288095Y-37597676D02*
X64335714Y-37692914D01*
X64335714Y-37692914D02*
X64383333Y-37883390D01*
X64383333Y-37883390D02*
X64383333Y-38026247D01*
X64383333Y-38026247D02*
X64335714Y-38216723D01*
X64335714Y-38216723D02*
X64288095Y-38311961D01*
X64288095Y-38311961D02*
X64192857Y-38407200D01*
X64192857Y-38407200D02*
X64050000Y-38454819D01*
X64050000Y-38454819D02*
X63811905Y-38454819D01*
X65335714Y-38454819D02*
X64764286Y-38454819D01*
X65050000Y-38454819D02*
X65050000Y-37454819D01*
X65050000Y-37454819D02*
X64954762Y-37597676D01*
X64954762Y-37597676D02*
X64859524Y-37692914D01*
X64859524Y-37692914D02*
X64764286Y-37740533D01*
X50857142Y-29609580D02*
X50809523Y-29657200D01*
X50809523Y-29657200D02*
X50666666Y-29704819D01*
X50666666Y-29704819D02*
X50571428Y-29704819D01*
X50571428Y-29704819D02*
X50428571Y-29657200D01*
X50428571Y-29657200D02*
X50333333Y-29561961D01*
X50333333Y-29561961D02*
X50285714Y-29466723D01*
X50285714Y-29466723D02*
X50238095Y-29276247D01*
X50238095Y-29276247D02*
X50238095Y-29133390D01*
X50238095Y-29133390D02*
X50285714Y-28942914D01*
X50285714Y-28942914D02*
X50333333Y-28847676D01*
X50333333Y-28847676D02*
X50428571Y-28752438D01*
X50428571Y-28752438D02*
X50571428Y-28704819D01*
X50571428Y-28704819D02*
X50666666Y-28704819D01*
X50666666Y-28704819D02*
X50809523Y-28752438D01*
X50809523Y-28752438D02*
X50857142Y-28800057D01*
X51809523Y-29704819D02*
X51238095Y-29704819D01*
X51523809Y-29704819D02*
X51523809Y-28704819D01*
X51523809Y-28704819D02*
X51428571Y-28847676D01*
X51428571Y-28847676D02*
X51333333Y-28942914D01*
X51333333Y-28942914D02*
X51238095Y-28990533D01*
X52761904Y-29704819D02*
X52190476Y-29704819D01*
X52476190Y-29704819D02*
X52476190Y-28704819D01*
X52476190Y-28704819D02*
X52380952Y-28847676D01*
X52380952Y-28847676D02*
X52285714Y-28942914D01*
X52285714Y-28942914D02*
X52190476Y-28990533D01*
X64383333Y-36454819D02*
X64050000Y-35978628D01*
X63811905Y-36454819D02*
X63811905Y-35454819D01*
X63811905Y-35454819D02*
X64192857Y-35454819D01*
X64192857Y-35454819D02*
X64288095Y-35502438D01*
X64288095Y-35502438D02*
X64335714Y-35550057D01*
X64335714Y-35550057D02*
X64383333Y-35645295D01*
X64383333Y-35645295D02*
X64383333Y-35788152D01*
X64383333Y-35788152D02*
X64335714Y-35883390D01*
X64335714Y-35883390D02*
X64288095Y-35931009D01*
X64288095Y-35931009D02*
X64192857Y-35978628D01*
X64192857Y-35978628D02*
X63811905Y-35978628D01*
X65335714Y-36454819D02*
X64764286Y-36454819D01*
X65050000Y-36454819D02*
X65050000Y-35454819D01*
X65050000Y-35454819D02*
X64954762Y-35597676D01*
X64954762Y-35597676D02*
X64859524Y-35692914D01*
X64859524Y-35692914D02*
X64764286Y-35740533D01*
X49654819Y-38761904D02*
X50464342Y-38761904D01*
X50464342Y-38761904D02*
X50559580Y-38714285D01*
X50559580Y-38714285D02*
X50607200Y-38666666D01*
X50607200Y-38666666D02*
X50654819Y-38571428D01*
X50654819Y-38571428D02*
X50654819Y-38380952D01*
X50654819Y-38380952D02*
X50607200Y-38285714D01*
X50607200Y-38285714D02*
X50559580Y-38238095D01*
X50559580Y-38238095D02*
X50464342Y-38190476D01*
X50464342Y-38190476D02*
X49654819Y-38190476D01*
X50654819Y-37190476D02*
X50654819Y-37761904D01*
X50654819Y-37476190D02*
X49654819Y-37476190D01*
X49654819Y-37476190D02*
X49797676Y-37571428D01*
X49797676Y-37571428D02*
X49892914Y-37666666D01*
X49892914Y-37666666D02*
X49940533Y-37761904D01*
X37583333Y-43109580D02*
X37535714Y-43157200D01*
X37535714Y-43157200D02*
X37392857Y-43204819D01*
X37392857Y-43204819D02*
X37297619Y-43204819D01*
X37297619Y-43204819D02*
X37154762Y-43157200D01*
X37154762Y-43157200D02*
X37059524Y-43061961D01*
X37059524Y-43061961D02*
X37011905Y-42966723D01*
X37011905Y-42966723D02*
X36964286Y-42776247D01*
X36964286Y-42776247D02*
X36964286Y-42633390D01*
X36964286Y-42633390D02*
X37011905Y-42442914D01*
X37011905Y-42442914D02*
X37059524Y-42347676D01*
X37059524Y-42347676D02*
X37154762Y-42252438D01*
X37154762Y-42252438D02*
X37297619Y-42204819D01*
X37297619Y-42204819D02*
X37392857Y-42204819D01*
X37392857Y-42204819D02*
X37535714Y-42252438D01*
X37535714Y-42252438D02*
X37583333Y-42300057D01*
X38440476Y-42538152D02*
X38440476Y-43204819D01*
X38202381Y-42157200D02*
X37964286Y-42871485D01*
X37964286Y-42871485D02*
X38583333Y-42871485D01*
X43333333Y-24704819D02*
X43000000Y-24228628D01*
X42761905Y-24704819D02*
X42761905Y-23704819D01*
X42761905Y-23704819D02*
X43142857Y-23704819D01*
X43142857Y-23704819D02*
X43238095Y-23752438D01*
X43238095Y-23752438D02*
X43285714Y-23800057D01*
X43285714Y-23800057D02*
X43333333Y-23895295D01*
X43333333Y-23895295D02*
X43333333Y-24038152D01*
X43333333Y-24038152D02*
X43285714Y-24133390D01*
X43285714Y-24133390D02*
X43238095Y-24181009D01*
X43238095Y-24181009D02*
X43142857Y-24228628D01*
X43142857Y-24228628D02*
X42761905Y-24228628D01*
X43714286Y-23800057D02*
X43761905Y-23752438D01*
X43761905Y-23752438D02*
X43857143Y-23704819D01*
X43857143Y-23704819D02*
X44095238Y-23704819D01*
X44095238Y-23704819D02*
X44190476Y-23752438D01*
X44190476Y-23752438D02*
X44238095Y-23800057D01*
X44238095Y-23800057D02*
X44285714Y-23895295D01*
X44285714Y-23895295D02*
X44285714Y-23990533D01*
X44285714Y-23990533D02*
X44238095Y-24133390D01*
X44238095Y-24133390D02*
X43666667Y-24704819D01*
X43666667Y-24704819D02*
X44285714Y-24704819D01*
X33607142Y-25109580D02*
X33559523Y-25157200D01*
X33559523Y-25157200D02*
X33416666Y-25204819D01*
X33416666Y-25204819D02*
X33321428Y-25204819D01*
X33321428Y-25204819D02*
X33178571Y-25157200D01*
X33178571Y-25157200D02*
X33083333Y-25061961D01*
X33083333Y-25061961D02*
X33035714Y-24966723D01*
X33035714Y-24966723D02*
X32988095Y-24776247D01*
X32988095Y-24776247D02*
X32988095Y-24633390D01*
X32988095Y-24633390D02*
X33035714Y-24442914D01*
X33035714Y-24442914D02*
X33083333Y-24347676D01*
X33083333Y-24347676D02*
X33178571Y-24252438D01*
X33178571Y-24252438D02*
X33321428Y-24204819D01*
X33321428Y-24204819D02*
X33416666Y-24204819D01*
X33416666Y-24204819D02*
X33559523Y-24252438D01*
X33559523Y-24252438D02*
X33607142Y-24300057D01*
X34559523Y-25204819D02*
X33988095Y-25204819D01*
X34273809Y-25204819D02*
X34273809Y-24204819D01*
X34273809Y-24204819D02*
X34178571Y-24347676D01*
X34178571Y-24347676D02*
X34083333Y-24442914D01*
X34083333Y-24442914D02*
X33988095Y-24490533D01*
X35178571Y-24204819D02*
X35273809Y-24204819D01*
X35273809Y-24204819D02*
X35369047Y-24252438D01*
X35369047Y-24252438D02*
X35416666Y-24300057D01*
X35416666Y-24300057D02*
X35464285Y-24395295D01*
X35464285Y-24395295D02*
X35511904Y-24585771D01*
X35511904Y-24585771D02*
X35511904Y-24823866D01*
X35511904Y-24823866D02*
X35464285Y-25014342D01*
X35464285Y-25014342D02*
X35416666Y-25109580D01*
X35416666Y-25109580D02*
X35369047Y-25157200D01*
X35369047Y-25157200D02*
X35273809Y-25204819D01*
X35273809Y-25204819D02*
X35178571Y-25204819D01*
X35178571Y-25204819D02*
X35083333Y-25157200D01*
X35083333Y-25157200D02*
X35035714Y-25109580D01*
X35035714Y-25109580D02*
X34988095Y-25014342D01*
X34988095Y-25014342D02*
X34940476Y-24823866D01*
X34940476Y-24823866D02*
X34940476Y-24585771D01*
X34940476Y-24585771D02*
X34988095Y-24395295D01*
X34988095Y-24395295D02*
X35035714Y-24300057D01*
X35035714Y-24300057D02*
X35083333Y-24252438D01*
X35083333Y-24252438D02*
X35178571Y-24204819D01*
X33931009Y-43083333D02*
X33931009Y-43416666D01*
X34454819Y-43416666D02*
X33454819Y-43416666D01*
X33454819Y-43416666D02*
X33454819Y-42940476D01*
X33931009Y-42226190D02*
X33978628Y-42083333D01*
X33978628Y-42083333D02*
X34026247Y-42035714D01*
X34026247Y-42035714D02*
X34121485Y-41988095D01*
X34121485Y-41988095D02*
X34264342Y-41988095D01*
X34264342Y-41988095D02*
X34359580Y-42035714D01*
X34359580Y-42035714D02*
X34407200Y-42083333D01*
X34407200Y-42083333D02*
X34454819Y-42178571D01*
X34454819Y-42178571D02*
X34454819Y-42559523D01*
X34454819Y-42559523D02*
X33454819Y-42559523D01*
X33454819Y-42559523D02*
X33454819Y-42226190D01*
X33454819Y-42226190D02*
X33502438Y-42130952D01*
X33502438Y-42130952D02*
X33550057Y-42083333D01*
X33550057Y-42083333D02*
X33645295Y-42035714D01*
X33645295Y-42035714D02*
X33740533Y-42035714D01*
X33740533Y-42035714D02*
X33835771Y-42083333D01*
X33835771Y-42083333D02*
X33883390Y-42130952D01*
X33883390Y-42130952D02*
X33931009Y-42226190D01*
X33931009Y-42226190D02*
X33931009Y-42559523D01*
X34454819Y-41035714D02*
X34454819Y-41607142D01*
X34454819Y-41321428D02*
X33454819Y-41321428D01*
X33454819Y-41321428D02*
X33597676Y-41416666D01*
X33597676Y-41416666D02*
X33692914Y-41511904D01*
X33692914Y-41511904D02*
X33740533Y-41607142D01*
X47988095Y-31704819D02*
X47988095Y-32514342D01*
X47988095Y-32514342D02*
X48035714Y-32609580D01*
X48035714Y-32609580D02*
X48083333Y-32657200D01*
X48083333Y-32657200D02*
X48178571Y-32704819D01*
X48178571Y-32704819D02*
X48369047Y-32704819D01*
X48369047Y-32704819D02*
X48464285Y-32657200D01*
X48464285Y-32657200D02*
X48511904Y-32609580D01*
X48511904Y-32609580D02*
X48559523Y-32514342D01*
X48559523Y-32514342D02*
X48559523Y-31704819D01*
X48988095Y-31800057D02*
X49035714Y-31752438D01*
X49035714Y-31752438D02*
X49130952Y-31704819D01*
X49130952Y-31704819D02*
X49369047Y-31704819D01*
X49369047Y-31704819D02*
X49464285Y-31752438D01*
X49464285Y-31752438D02*
X49511904Y-31800057D01*
X49511904Y-31800057D02*
X49559523Y-31895295D01*
X49559523Y-31895295D02*
X49559523Y-31990533D01*
X49559523Y-31990533D02*
X49511904Y-32133390D01*
X49511904Y-32133390D02*
X48940476Y-32704819D01*
X48940476Y-32704819D02*
X49559523Y-32704819D01*
X30333333Y-30859580D02*
X30285714Y-30907200D01*
X30285714Y-30907200D02*
X30142857Y-30954819D01*
X30142857Y-30954819D02*
X30047619Y-30954819D01*
X30047619Y-30954819D02*
X29904762Y-30907200D01*
X29904762Y-30907200D02*
X29809524Y-30811961D01*
X29809524Y-30811961D02*
X29761905Y-30716723D01*
X29761905Y-30716723D02*
X29714286Y-30526247D01*
X29714286Y-30526247D02*
X29714286Y-30383390D01*
X29714286Y-30383390D02*
X29761905Y-30192914D01*
X29761905Y-30192914D02*
X29809524Y-30097676D01*
X29809524Y-30097676D02*
X29904762Y-30002438D01*
X29904762Y-30002438D02*
X30047619Y-29954819D01*
X30047619Y-29954819D02*
X30142857Y-29954819D01*
X30142857Y-29954819D02*
X30285714Y-30002438D01*
X30285714Y-30002438D02*
X30333333Y-30050057D01*
X31238095Y-29954819D02*
X30761905Y-29954819D01*
X30761905Y-29954819D02*
X30714286Y-30431009D01*
X30714286Y-30431009D02*
X30761905Y-30383390D01*
X30761905Y-30383390D02*
X30857143Y-30335771D01*
X30857143Y-30335771D02*
X31095238Y-30335771D01*
X31095238Y-30335771D02*
X31190476Y-30383390D01*
X31190476Y-30383390D02*
X31238095Y-30431009D01*
X31238095Y-30431009D02*
X31285714Y-30526247D01*
X31285714Y-30526247D02*
X31285714Y-30764342D01*
X31285714Y-30764342D02*
X31238095Y-30859580D01*
X31238095Y-30859580D02*
X31190476Y-30907200D01*
X31190476Y-30907200D02*
X31095238Y-30954819D01*
X31095238Y-30954819D02*
X30857143Y-30954819D01*
X30857143Y-30954819D02*
X30761905Y-30907200D01*
X30761905Y-30907200D02*
X30714286Y-30859580D01*
X33583333Y-27204819D02*
X33250000Y-26728628D01*
X33011905Y-27204819D02*
X33011905Y-26204819D01*
X33011905Y-26204819D02*
X33392857Y-26204819D01*
X33392857Y-26204819D02*
X33488095Y-26252438D01*
X33488095Y-26252438D02*
X33535714Y-26300057D01*
X33535714Y-26300057D02*
X33583333Y-26395295D01*
X33583333Y-26395295D02*
X33583333Y-26538152D01*
X33583333Y-26538152D02*
X33535714Y-26633390D01*
X33535714Y-26633390D02*
X33488095Y-26681009D01*
X33488095Y-26681009D02*
X33392857Y-26728628D01*
X33392857Y-26728628D02*
X33011905Y-26728628D01*
X34440476Y-26538152D02*
X34440476Y-27204819D01*
X34202381Y-26157200D02*
X33964286Y-26871485D01*
X33964286Y-26871485D02*
X34583333Y-26871485D01*
X35833333Y-21109580D02*
X35785714Y-21157200D01*
X35785714Y-21157200D02*
X35642857Y-21204819D01*
X35642857Y-21204819D02*
X35547619Y-21204819D01*
X35547619Y-21204819D02*
X35404762Y-21157200D01*
X35404762Y-21157200D02*
X35309524Y-21061961D01*
X35309524Y-21061961D02*
X35261905Y-20966723D01*
X35261905Y-20966723D02*
X35214286Y-20776247D01*
X35214286Y-20776247D02*
X35214286Y-20633390D01*
X35214286Y-20633390D02*
X35261905Y-20442914D01*
X35261905Y-20442914D02*
X35309524Y-20347676D01*
X35309524Y-20347676D02*
X35404762Y-20252438D01*
X35404762Y-20252438D02*
X35547619Y-20204819D01*
X35547619Y-20204819D02*
X35642857Y-20204819D01*
X35642857Y-20204819D02*
X35785714Y-20252438D01*
X35785714Y-20252438D02*
X35833333Y-20300057D01*
X36166667Y-20204819D02*
X36785714Y-20204819D01*
X36785714Y-20204819D02*
X36452381Y-20585771D01*
X36452381Y-20585771D02*
X36595238Y-20585771D01*
X36595238Y-20585771D02*
X36690476Y-20633390D01*
X36690476Y-20633390D02*
X36738095Y-20681009D01*
X36738095Y-20681009D02*
X36785714Y-20776247D01*
X36785714Y-20776247D02*
X36785714Y-21014342D01*
X36785714Y-21014342D02*
X36738095Y-21109580D01*
X36738095Y-21109580D02*
X36690476Y-21157200D01*
X36690476Y-21157200D02*
X36595238Y-21204819D01*
X36595238Y-21204819D02*
X36309524Y-21204819D01*
X36309524Y-21204819D02*
X36214286Y-21157200D01*
X36214286Y-21157200D02*
X36166667Y-21109580D01*
X39583333Y-40109580D02*
X39535714Y-40157200D01*
X39535714Y-40157200D02*
X39392857Y-40204819D01*
X39392857Y-40204819D02*
X39297619Y-40204819D01*
X39297619Y-40204819D02*
X39154762Y-40157200D01*
X39154762Y-40157200D02*
X39059524Y-40061961D01*
X39059524Y-40061961D02*
X39011905Y-39966723D01*
X39011905Y-39966723D02*
X38964286Y-39776247D01*
X38964286Y-39776247D02*
X38964286Y-39633390D01*
X38964286Y-39633390D02*
X39011905Y-39442914D01*
X39011905Y-39442914D02*
X39059524Y-39347676D01*
X39059524Y-39347676D02*
X39154762Y-39252438D01*
X39154762Y-39252438D02*
X39297619Y-39204819D01*
X39297619Y-39204819D02*
X39392857Y-39204819D01*
X39392857Y-39204819D02*
X39535714Y-39252438D01*
X39535714Y-39252438D02*
X39583333Y-39300057D01*
X39916667Y-39204819D02*
X40583333Y-39204819D01*
X40583333Y-39204819D02*
X40154762Y-40204819D01*
%TO.C,SW1*%
D12*
X24800000Y-23455000D02*
X24800000Y-24245000D01*
X25400000Y-25255000D02*
X31100000Y-25255000D01*
X26650000Y-22405000D02*
X28350000Y-22405000D01*
X26850000Y-25255000D02*
X26850000Y-26545000D01*
X26850000Y-26545000D02*
X27050000Y-26755000D01*
X27050000Y-26755000D02*
X27950000Y-26755000D01*
X28150000Y-26545000D02*
X27950000Y-26755000D01*
X28150000Y-26545000D02*
X28150000Y-25255000D01*
X29650000Y-22405000D02*
X29850000Y-22405000D01*
X31700000Y-24245000D02*
X31700000Y-23455000D01*
%TO.C,C9*%
X44357836Y-39390000D02*
X44142164Y-39390000D01*
X44357836Y-40110000D02*
X44142164Y-40110000D01*
%TO.C,Y1*%
X24315000Y-36450000D02*
X24315000Y-30050000D01*
X29185000Y-30050000D02*
X29185000Y-36450000D01*
X24315000Y-30050000D02*
G75*
G02*
X29185000Y-30050000I2435000J0D01*
G01*
X29185000Y-36450000D02*
G75*
G02*
X24315000Y-36450000I-2435000J0D01*
G01*
%TO.C,C12*%
X32640000Y-34357836D02*
X32640000Y-34142164D01*
X33360000Y-34357836D02*
X33360000Y-34142164D01*
%TO.C,C2*%
X58965000Y-38861252D02*
X58965000Y-38338748D01*
X60435000Y-38861252D02*
X60435000Y-38338748D01*
%TO.C,C1*%
X55488748Y-31765000D02*
X56011252Y-31765000D01*
X55488748Y-33235000D02*
X56011252Y-33235000D01*
%TO.C,R3*%
X41663641Y-21620000D02*
X41356359Y-21620000D01*
X41663641Y-22380000D02*
X41356359Y-22380000D01*
%TO.C,C8*%
X30140000Y-34107836D02*
X30140000Y-33892164D01*
X30860000Y-34107836D02*
X30860000Y-33892164D01*
%TO.C,C6*%
X32627836Y-28140000D02*
X32412164Y-28140000D01*
X32627836Y-28860000D02*
X32412164Y-28860000D01*
%TO.C,C13*%
X32107836Y-38140000D02*
X31892164Y-38140000D01*
X32107836Y-38860000D02*
X31892164Y-38860000D01*
%TO.C,C14*%
X32107836Y-39640000D02*
X31892164Y-39640000D01*
X32107836Y-40360000D02*
X31892164Y-40360000D01*
%TO.C,D1*%
X61515000Y-37327500D02*
X61515000Y-39612500D01*
X62985000Y-37327500D02*
X61515000Y-37327500D01*
X62985000Y-39612500D02*
X62985000Y-37327500D01*
%TO.C,C11*%
X48140000Y-28642164D02*
X48140000Y-28857836D01*
X48860000Y-28642164D02*
X48860000Y-28857836D01*
%TO.C,R1*%
X61870000Y-36263641D02*
X61870000Y-35956359D01*
X62630000Y-36263641D02*
X62630000Y-35956359D01*
%TO.C,U1*%
X51290000Y-36300000D02*
X51290000Y-40060000D01*
X51290000Y-40060000D02*
X52550000Y-40060000D01*
X58110000Y-36300000D02*
X58110000Y-40060000D01*
X58110000Y-40060000D02*
X56850000Y-40060000D01*
X58010000Y-35020000D02*
X58340000Y-34780000D01*
X58340000Y-35260000D01*
X58010000Y-35020000D01*
G36*
X58340000Y-35260000D02*
G01*
X58010000Y-35020000D01*
X58340000Y-34780000D01*
X58340000Y-35260000D01*
G37*
%TO.C,J2*%
X39560000Y-16620000D02*
X39560000Y-19380000D01*
X47290000Y-16620000D02*
X39560000Y-16620000D01*
X47290000Y-16620000D02*
X47290000Y-19380000D01*
X47290000Y-19380000D02*
X39560000Y-19380000D01*
X48560000Y-16620000D02*
X49940000Y-16620000D01*
X49940000Y-16620000D02*
X49940000Y-18000000D01*
%TO.C,C4*%
X37642164Y-41140000D02*
X37857836Y-41140000D01*
X37642164Y-41860000D02*
X37857836Y-41860000D01*
%TO.C,R2*%
X43356359Y-21620000D02*
X43663641Y-21620000D01*
X43356359Y-22380000D02*
X43663641Y-22380000D01*
%TO.C,C10*%
X36642164Y-24390000D02*
X36857836Y-24390000D01*
X36642164Y-25110000D02*
X36857836Y-25110000D01*
%TO.C,J1*%
X39560000Y-41620000D02*
X39560000Y-44380000D01*
X47290000Y-41620000D02*
X39560000Y-41620000D01*
X47290000Y-41620000D02*
X47290000Y-44380000D01*
X47290000Y-44380000D02*
X39560000Y-44380000D01*
X48560000Y-41620000D02*
X49940000Y-41620000D01*
X49940000Y-41620000D02*
X49940000Y-43000000D01*
%TO.C,J3*%
X60575000Y-31025000D02*
X60575000Y-31750000D01*
X60575000Y-31750000D02*
X61000000Y-31750000D01*
X61000000Y-28150000D02*
X61000000Y-27150000D01*
X61000000Y-31750000D02*
X61000000Y-32750000D01*
X62750000Y-34100000D02*
X64150000Y-34100000D01*
X64150000Y-25800000D02*
X62750000Y-25800000D01*
X66550000Y-34100000D02*
X66700000Y-34100000D01*
X66700000Y-25800000D02*
X66550000Y-25800000D01*
X66700000Y-26100000D02*
X66700000Y-25800000D01*
X66700000Y-33800000D02*
X67150000Y-33800000D01*
X66700000Y-34100000D02*
X66700000Y-33800000D01*
X67150000Y-26100000D02*
X66700000Y-26100000D01*
%TO.C,FB1*%
X33510000Y-39124721D02*
X33510000Y-39450279D01*
X34530000Y-39124721D02*
X34530000Y-39450279D01*
%TO.C,U2*%
X35640000Y-27140000D02*
X36590000Y-27140000D01*
X35640000Y-28090000D02*
X35640000Y-27140000D01*
X35640000Y-37360000D02*
X35640000Y-36410000D01*
X36590000Y-37360000D02*
X35640000Y-37360000D01*
X44910000Y-27140000D02*
X45860000Y-27140000D01*
X45860000Y-27140000D02*
X45860000Y-28090000D01*
X45860000Y-36410000D02*
X45860000Y-37360000D01*
X45860000Y-37360000D02*
X44910000Y-37360000D01*
X35000000Y-28090000D02*
X34660000Y-27620000D01*
X35340000Y-27620000D01*
X35000000Y-28090000D01*
G36*
X35000000Y-28090000D02*
G01*
X34660000Y-27620000D01*
X35340000Y-27620000D01*
X35000000Y-28090000D01*
G37*
%TO.C,C5*%
X30140000Y-31892164D02*
X30140000Y-32107836D01*
X30860000Y-31892164D02*
X30860000Y-32107836D01*
%TO.C,R4*%
X31596359Y-26370000D02*
X31903641Y-26370000D01*
X31596359Y-27130000D02*
X31903641Y-27130000D01*
%TO.C,C3*%
X37109420Y-21740000D02*
X37390580Y-21740000D01*
X37109420Y-22760000D02*
X37390580Y-22760000D01*
%TO.C,C7*%
X37857836Y-39390000D02*
X37642164Y-39390000D01*
X37857836Y-40110000D02*
X37642164Y-40110000D01*
%TO.C,J4*%
X51620000Y-16620000D02*
X51620000Y-19380000D01*
X59350000Y-16620000D02*
X51620000Y-16620000D01*
X59350000Y-16620000D02*
X59350000Y-19380000D01*
X59350000Y-19380000D02*
X51620000Y-19380000D01*
X60620000Y-16620000D02*
X62000000Y-16620000D01*
X62000000Y-16620000D02*
X62000000Y-18000000D01*
%TD*%
M02*
