%TF.GenerationSoftware,KiCad,Pcbnew,10.0.6*%
%TF.CreationDate,2026-09-28T21:12:06+07:00*%
%TF.ProjectId,STM32,53544d33-322e-46b6-9963-61645f706362,rev?*%
%TF.SameCoordinates,Original*%
%TF.FileFunction,Soldermask,Top*%
%TF.FilePolarity,Negative*%
%FSLAX46Y46*%
G04 Gerber Fmt 4.6, Leading zero omitted, Abs format (unit mm)*
G04 Created by KiCad (PCBNEW 10.0.6) date 2026-09-28 21:12:06*
%MOMM*%
%LPD*%
G01*
G04 APERTURE LIST*
G04 Aperture macros list*
%AMRoundRect*
0 Rectangle with rounded corners*
0 $1 Rounding radius*
0 $2 $3 $4 $5 $6 $7 $8 $9 X,Y pos of 4 corners*
0 Add a 4 corners polygon primitive as box body*
4,1,4,$2,$3,$4,$5,$6,$7,$8,$9,$2,$3,0*
0 Add four circle primitives for the rounded corners*
1,1,$1+$1,$2,$3*
1,1,$1+$1,$4,$5*
1,1,$1+$1,$6,$7*
1,1,$1+$1,$8,$9*
0 Add four rect primitives between the rounded corners*
20,1,$1+$1,$2,$3,$4,$5,0*
20,1,$1+$1,$4,$5,$6,$7,0*
20,1,$1+$1,$6,$7,$8,$9,0*
20,1,$1+$1,$8,$9,$2,$3,0*%
G04 Aperture macros list end*
%ADD10C,2.200000*%
%ADD11R,1.000000X0.800000*%
%ADD12C,0.900000*%
%ADD13R,0.700000X1.500000*%
%ADD14RoundRect,0.140000X0.140000X0.170000X-0.140000X0.170000X-0.140000X-0.170000X0.140000X-0.170000X0*%
%ADD15C,1.500000*%
%ADD16RoundRect,0.140000X0.170000X-0.140000X0.170000X0.140000X-0.170000X0.140000X-0.170000X-0.140000X0*%
%ADD17RoundRect,0.250000X0.475000X-0.250000X0.475000X0.250000X-0.475000X0.250000X-0.475000X-0.250000X0*%
%ADD18RoundRect,0.250000X-0.250000X-0.475000X0.250000X-0.475000X0.250000X0.475000X-0.250000X0.475000X0*%
%ADD19RoundRect,0.135000X0.135000X0.185000X-0.135000X0.185000X-0.135000X-0.185000X0.135000X-0.185000X0*%
%ADD20RoundRect,0.218750X-0.256250X0.218750X-0.256250X-0.218750X0.256250X-0.218750X0.256250X0.218750X0*%
%ADD21RoundRect,0.140000X-0.170000X0.140000X-0.170000X-0.140000X0.170000X-0.140000X0.170000X0.140000X0*%
%ADD22RoundRect,0.135000X0.185000X-0.135000X0.185000X0.135000X-0.185000X0.135000X-0.185000X-0.135000X0*%
%ADD23RoundRect,0.375000X-0.375000X0.625000X-0.375000X-0.625000X0.375000X-0.625000X0.375000X0.625000X0*%
%ADD24RoundRect,0.500000X-1.400000X0.500000X-1.400000X-0.500000X1.400000X-0.500000X1.400000X0.500000X0*%
%ADD25R,1.700000X1.700000*%
%ADD26C,1.700000*%
%ADD27RoundRect,0.140000X-0.140000X-0.170000X0.140000X-0.170000X0.140000X0.170000X-0.140000X0.170000X0*%
%ADD28RoundRect,0.135000X-0.135000X-0.185000X0.135000X-0.185000X0.135000X0.185000X-0.135000X0.185000X0*%
%ADD29O,0.800000X0.800000*%
%ADD30RoundRect,0.112500X0.537500X-0.112500X0.537500X0.112500X-0.537500X0.112500X-0.537500X-0.112500X0*%
%ADD31O,1.800000X1.150000*%
%ADD32O,2.000000X1.450000*%
%ADD33RoundRect,0.075000X-0.700000X-0.075000X0.700000X-0.075000X0.700000X0.075000X-0.700000X0.075000X0*%
%ADD34RoundRect,0.075000X-0.075000X-0.700000X0.075000X-0.700000X0.075000X0.700000X-0.075000X0.700000X0*%
%ADD35RoundRect,0.225000X-0.225000X-0.250000X0.225000X-0.250000X0.225000X0.250000X-0.225000X0.250000X0*%
G04 APERTURE END LIST*
D10*
%TO.C,H4*%
X26500000Y-18500000D03*
%TD*%
D11*
%TO.C,SW1*%
X24600000Y-22745000D03*
X24600000Y-24955000D03*
D12*
X26750000Y-23855000D03*
X29750000Y-23855000D03*
D11*
X31900000Y-22745000D03*
X31900000Y-24955000D03*
D13*
X26000000Y-22095000D03*
X29000000Y-22095000D03*
X30500000Y-22095000D03*
%TD*%
D14*
%TO.C,C9*%
X44730000Y-39750000D03*
X43770000Y-39750000D03*
%TD*%
D10*
%TO.C,H1*%
X26500000Y-42000000D03*
%TD*%
D15*
%TO.C,Y1*%
X26750000Y-30810000D03*
X26750000Y-35690000D03*
%TD*%
D16*
%TO.C,C12*%
X33000000Y-34730000D03*
X33000000Y-33770000D03*
%TD*%
D10*
%TO.C,H3*%
X65000000Y-18500000D03*
%TD*%
D17*
%TO.C,C2*%
X59700000Y-39550000D03*
X59700000Y-37650000D03*
%TD*%
D10*
%TO.C,H2*%
X65000000Y-42000000D03*
%TD*%
D18*
%TO.C,C1*%
X54800000Y-32500000D03*
X56700000Y-32500000D03*
%TD*%
D19*
%TO.C,R3*%
X42020000Y-22000000D03*
X41000000Y-22000000D03*
%TD*%
D16*
%TO.C,C8*%
X30500000Y-34480000D03*
X30500000Y-33520000D03*
%TD*%
D14*
%TO.C,C6*%
X33000000Y-28500000D03*
X32040000Y-28500000D03*
%TD*%
%TO.C,C13*%
X32480000Y-38500000D03*
X31520000Y-38500000D03*
%TD*%
%TO.C,C14*%
X32480000Y-40000000D03*
X31520000Y-40000000D03*
%TD*%
D20*
%TO.C,D1*%
X62250000Y-38025000D03*
X62250000Y-39600000D03*
%TD*%
D21*
%TO.C,C11*%
X48500000Y-28270000D03*
X48500000Y-29230000D03*
%TD*%
D22*
%TO.C,R1*%
X62250000Y-36620000D03*
X62250000Y-35600000D03*
%TD*%
D23*
%TO.C,U1*%
X57000000Y-35000000D03*
X54700000Y-35000000D03*
D24*
X54700000Y-41300000D03*
D23*
X52400000Y-35000000D03*
%TD*%
D25*
%TO.C,J2*%
X48560000Y-18000000D03*
D26*
X46020000Y-18000000D03*
X43480000Y-18000000D03*
X40940000Y-18000000D03*
%TD*%
D27*
%TO.C,C4*%
X37270000Y-41500000D03*
X38230000Y-41500000D03*
%TD*%
D28*
%TO.C,R2*%
X43000000Y-22000000D03*
X44020000Y-22000000D03*
%TD*%
D27*
%TO.C,C10*%
X36270000Y-24750000D03*
X37230000Y-24750000D03*
%TD*%
D25*
%TO.C,J1*%
X48560000Y-43000000D03*
D26*
X46020000Y-43000000D03*
X43480000Y-43000000D03*
X40940000Y-43000000D03*
%TD*%
D29*
%TO.C,J3*%
X62600000Y-32450000D03*
X62600000Y-27450000D03*
D30*
X61500000Y-31250000D03*
X61500000Y-30600000D03*
X61500000Y-29950000D03*
X61500000Y-29300000D03*
X61500000Y-28650000D03*
D31*
X65350000Y-33825000D03*
D32*
X61550000Y-33675000D03*
X61550000Y-26225000D03*
D31*
X65350000Y-26075000D03*
%TD*%
D20*
%TO.C,FB1*%
X34020000Y-38500000D03*
X34020000Y-40075000D03*
%TD*%
D33*
%TO.C,U2*%
X35075000Y-28500000D03*
X35075000Y-29000000D03*
X35075000Y-29500000D03*
X35075000Y-30000000D03*
X35075000Y-30500000D03*
X35075000Y-31000000D03*
X35075000Y-31500000D03*
X35075000Y-32000000D03*
X35075000Y-32500000D03*
X35075000Y-33000000D03*
X35075000Y-33500000D03*
X35075000Y-34000000D03*
X35075000Y-34500000D03*
X35075000Y-35000000D03*
X35075000Y-35500000D03*
X35075000Y-36000000D03*
D34*
X37000000Y-37925000D03*
X37500000Y-37925000D03*
X38000000Y-37925000D03*
X38500000Y-37925000D03*
X39000000Y-37925000D03*
X39500000Y-37925000D03*
X40000000Y-37925000D03*
X40500000Y-37925000D03*
X41000000Y-37925000D03*
X41500000Y-37925000D03*
X42000000Y-37925000D03*
X42500000Y-37925000D03*
X43000000Y-37925000D03*
X43500000Y-37925000D03*
X44000000Y-37925000D03*
X44500000Y-37925000D03*
D33*
X46425000Y-36000000D03*
X46425000Y-35500000D03*
X46425000Y-35000000D03*
X46425000Y-34500000D03*
X46425000Y-34000000D03*
X46425000Y-33500000D03*
X46425000Y-33000000D03*
X46425000Y-32500000D03*
X46425000Y-32000000D03*
X46425000Y-31500000D03*
X46425000Y-31000000D03*
X46425000Y-30500000D03*
X46425000Y-30000000D03*
X46425000Y-29500000D03*
X46425000Y-29000000D03*
X46425000Y-28500000D03*
D34*
X44500000Y-26575000D03*
X44000000Y-26575000D03*
X43500000Y-26575000D03*
X43000000Y-26575000D03*
X42500000Y-26575000D03*
X42000000Y-26575000D03*
X41500000Y-26575000D03*
X41000000Y-26575000D03*
X40500000Y-26575000D03*
X40000000Y-26575000D03*
X39500000Y-26575000D03*
X39000000Y-26575000D03*
X38500000Y-26575000D03*
X38000000Y-26575000D03*
X37500000Y-26575000D03*
X37000000Y-26575000D03*
%TD*%
D21*
%TO.C,C5*%
X30500000Y-31520000D03*
X30500000Y-32480000D03*
%TD*%
D28*
%TO.C,R4*%
X31240000Y-26750000D03*
X32260000Y-26750000D03*
%TD*%
D35*
%TO.C,C3*%
X36475000Y-22250000D03*
X38025000Y-22250000D03*
%TD*%
D14*
%TO.C,C7*%
X38230000Y-39750000D03*
X37270000Y-39750000D03*
%TD*%
D25*
%TO.C,J4*%
X60620000Y-18000000D03*
D26*
X58080000Y-18000000D03*
X55540000Y-18000000D03*
X53000000Y-18000000D03*
%TD*%
M02*
